<svg xmlns="http://www.w3.org/2000/svg" xmlns:xlink="http://www.w3.org/1999/xlink" contentStyleType="text/css" data-diagram-type="CLASS" height="1018px" preserveAspectRatio="none" style="width:7380px;height:1018px;background:#FFFFFF;" version="1.1" viewBox="0 0 7380 1018" width="7380px" zoomAndPan="magnify"><?plantuml 1.2026.4beta2?><defs/><g><g class="title" data-source-line="1"><text fill="#000000" font-family="sans-serif" font-size="14" font-weight="700" lengthAdjust="spacing" textLength="324.6318" x="3524.1841" y="24.9951">Sistema de Gest&#227;o das Olimp&#237;adas (SGO)</text><text fill="#000000" font-family="sans-serif" font-size="14" font-weight="700" lengthAdjust="spacing" textLength="167.6855" x="3602.6572" y="41.292">Diagrama de Pacotes</text></g><rect fill="#FFFFCC" height="16.6406" rx="2.5" ry="2.5" style="stroke:#FFDD88;stroke-width:3;" width="7364" x="3" y="60.5938"/><text fill="#000000" font-family="monospace" font-size="10" lengthAdjust="spacing" textLength="295.0049" x="10" y="71.2344">Please&#160;use&#160;CSS&#160;style&#160;instead&#160;of&#160;skinparam&#160;padding</text><!--cluster AP--><g class="cluster" data-qualified-name="AP" data-source-line="8" id="ent0002"><rect fill="none" height="409" rx="2.5" ry="2.5" style="stroke:#000000;stroke-width:1.5;" width="1465" x="7" y="117.5344"/><text fill="#000000" font-family="sans-serif" font-size="14" font-weight="700" lengthAdjust="spacing" textLength="108.5547" x="685.2227" y="134.5295">Apresenta&#231;&#227;o</text></g><!--cluster Interface de Usu?rio--><g class="cluster" data-qualified-name="AP.Interface de Usu.rio" data-source-line="9" id="ent0003"><rect fill="none" height="322" rx="2.5" ry="2.5" style="stroke:#000000;stroke-width:1.5;" width="535" x="39" y="172.5344"/><text fill="#000000" font-family="sans-serif" font-size="14" font-weight="700" lengthAdjust="spacing" textLength="161.3008" x="225.8496" y="189.5295">Interface de Usu&#225;rio</text></g><!--cluster Controladores--><g class="cluster" data-qualified-name="AP.Controladores" data-source-line="16" id="ent0009"><rect fill="none" height="103" rx="2.5" ry="2.5" style="stroke:#000000;stroke-width:1.5;" width="834" x="598" y="172.5344"/><text fill="#000000" font-family="sans-serif" font-size="14" font-weight="700" lengthAdjust="spacing" textLength="111.6924" x="959.1538" y="189.5295">Controladores</text></g><!--cluster NG--><g class="cluster" data-qualified-name="NG" data-source-line="26" id="ent0015"><rect fill="none" height="668" rx="2.5" ry="2.5" style="stroke:#000000;stroke-width:1.5;" width="2440" x="1512" y="336.5344"/><text fill="#000000" font-family="sans-serif" font-size="14" font-weight="700" lengthAdjust="spacing" textLength="63.5674" x="2700.2163" y="353.5295">Neg&#243;cio</text></g><!--cluster Entidades--><g class="cluster" data-qualified-name="NG.Entidades" data-source-line="27" id="ent0016"><rect fill="none" height="581" rx="2.5" ry="2.5" style="stroke:#000000;stroke-width:1.5;" width="406" x="1544" y="391.5344"/><text fill="#000000" font-family="sans-serif" font-size="14" font-weight="700" lengthAdjust="spacing" textLength="78.3398" x="1707.8301" y="408.5295">Entidades</text></g><!--cluster Servi?os--><g class="cluster" data-qualified-name="NG.Servi.os" data-source-line="37" id="ent0025"><rect fill="none" height="103" rx="2.5" ry="2.5" style="stroke:#000000;stroke-width:1.5;" width="1159" x="1974" y="391.5344"/><text fill="#000000" font-family="sans-serif" font-size="14" font-weight="700" lengthAdjust="spacing" textLength="66.6572" x="2520.1714" y="408.5295">Servi&#231;os</text></g><!--cluster Valida??es--><g class="cluster" data-qualified-name="NG.Valida..es" data-source-line="45" id="ent0032"><rect fill="none" height="103" rx="2.5" ry="2.5" style="stroke:#000000;stroke-width:1.5;" width="755" x="3157" y="391.5344"/><text fill="#000000" font-family="sans-serif" font-size="14" font-weight="700" lengthAdjust="spacing" textLength="85.0938" x="3491.9531" y="408.5295">Valida&#231;&#245;es</text></g><!--cluster PS--><g class="cluster" data-qualified-name="PS" data-source-line="54" id="ent0037"><rect fill="none" height="409" rx="2.5" ry="2.5" style="stroke:#000000;stroke-width:1.5;" width="1615" x="3992" y="595.5344"/><text fill="#000000" font-family="sans-serif" font-size="14" font-weight="700" lengthAdjust="spacing" textLength="96.8242" x="4751.0879" y="612.5295">Persist&#234;ncia</text></g><!--cluster Reposit?rios--><g class="cluster" data-qualified-name="PS.Reposit.rios" data-source-line="55" id="ent0038"><rect fill="none" height="103" rx="2.5" ry="2.5" style="stroke:#000000;stroke-width:1.5;" width="1007" x="4024" y="650.5344"/><text fill="#000000" font-family="sans-serif" font-size="14" font-weight="700" lengthAdjust="spacing" textLength="99.0117" x="4477.9941" y="667.5295">Reposit&#243;rios</text></g><!--cluster Mapeamento ORM--><g class="cluster" data-qualified-name="PS.Mapeamento ORM" data-source-line="62" id="ent0044"><rect fill="none" height="322" rx="2.5" ry="2.5" style="stroke:#000000;stroke-width:1.5;" width="512" x="5055" y="650.5344"/><text fill="#000000" font-family="sans-serif" font-size="14" font-weight="700" lengthAdjust="spacing" textLength="144.1904" x="5238.9048" y="667.5295">Mapeamento ORM</text></g><!--cluster BD--><g class="cluster" data-qualified-name="BD" data-source-line="72" id="ent0050"><rect fill="none" height="190" rx="2.5" ry="2.5" style="stroke:#000000;stroke-width:1.5;" width="387" x="5647" y="814.5344"/><text fill="#000000" font-family="sans-serif" font-size="14" font-weight="700" lengthAdjust="spacing" textLength="126.3076" x="5777.3462" y="831.5295">Banco de Dados</text></g><!--cluster SQL--><g class="cluster" data-qualified-name="BD.SQL" data-source-line="73" id="ent0051"><rect fill="none" height="103" rx="2.5" ry="2.5" style="stroke:#000000;stroke-width:1.5;" width="315" x="5679" y="869.5344"/><text fill="#000000" font-family="sans-serif" font-size="14" font-weight="700" lengthAdjust="spacing" textLength="30.9053" x="5821.0474" y="886.5295">SQL</text></g><!--cluster UT--><g class="cluster" data-qualified-name="UT" data-source-line="80" id="ent0054"><rect fill="none" height="409" rx="2.5" ry="2.5" style="stroke:#000000;stroke-width:1.5;" width="1292" x="6074" y="595.5344"/><text fill="#000000" font-family="sans-serif" font-size="14" font-weight="700" lengthAdjust="spacing" textLength="78.251" x="6680.8745" y="612.5295">Utilit&#225;rios</text></g><!--cluster Convers?o--><g class="cluster" data-qualified-name="UT.Convers.o" data-source-line="81" id="ent0055"><rect fill="none" height="103" rx="2.5" ry="2.5" style="stroke:#000000;stroke-width:1.5;" width="348" x="6106" y="650.5344"/><text fill="#000000" font-family="sans-serif" font-size="14" font-weight="700" lengthAdjust="spacing" textLength="82.7832" x="6238.6084" y="667.5295">Convers&#227;o</text></g><!--cluster Formata??o--><g class="cluster" data-qualified-name="UT.Formata..o" data-source-line="85" id="ent0058"><rect fill="none" height="103" rx="2.5" ry="2.5" style="stroke:#000000;stroke-width:1.5;" width="409" x="6478" y="650.5344"/><text fill="#000000" font-family="sans-serif" font-size="14" font-weight="700" lengthAdjust="spacing" textLength="93.625" x="6635.6875" y="667.5295">Formata&#231;&#227;o</text></g><!--cluster Exce??es--><g class="cluster" data-qualified-name="UT.Exce..es" data-source-line="89" id="ent0061"><rect fill="none" height="322" rx="2.5" ry="2.5" style="stroke:#000000;stroke-width:1.5;" width="415" x="6911" y="650.5344"/><text fill="#000000" font-family="sans-serif" font-size="14" font-weight="700" lengthAdjust="spacing" textLength="72.1328" x="7082.4336" y="667.5295">Exce&#231;&#245;es</text></g><!--class ITelaCompeti??o--><g class="entity" data-qualified-name="AP.Interface de Usu.rio.ITelaCompeti..o" data-source-line="10" id="ent0004"><rect fill="#F1F1F1" height="48" rx="2.5" ry="2.5" style="stroke:#181818;stroke-width:0.5;" width="153.4619" x="55.27" y="211.5344"/><ellipse cx="70.27" cy="227.5344" fill="#ADD1B2" rx="11" ry="11" style="stroke:#181818;stroke-width:1;"/><path d="M73.2388,233.175 Q72.6606,233.4719 72.02,233.6125 Q71.3794,233.7687 70.6763,233.7687 Q68.1763,233.7687 66.8481,232.1281 Q65.5356,230.4719 65.5356,227.3469 Q65.5356,224.2219 66.8481,222.5656 Q68.1763,220.9094 70.6763,220.9094 Q71.3794,220.9094 72.02,221.0656 Q72.6763,221.2219 73.2388,221.5187 L73.2388,224.2375 Q72.6138,223.6594 72.02,223.3937 Q71.4263,223.1125 70.8013,223.1125 Q69.4575,223.1125 68.77,224.1906 Q68.0825,225.2531 68.0825,227.3469 Q68.0825,229.4406 68.77,230.5187 Q69.4575,231.5812 70.8013,231.5812 Q71.4263,231.5812 72.02,231.3156 Q72.6138,231.0344 73.2388,230.4562 L73.2388,233.175 Z " fill="#000000"/><text fill="#000000" font-family="sans-serif" font-size="14" lengthAdjust="spacing" textLength="117.4619" x="86.27" y="232.3811">ITelaCompeti&#231;&#227;o</text><line style="stroke:#181818;stroke-width:0.5;" x1="56.27" x2="207.7319" y1="243.5344" y2="243.5344"/><line style="stroke:#181818;stroke-width:0.5;" x1="56.27" x2="207.7319" y1="251.5344" y2="251.5344"/></g><!--class ITelaInscri??o--><g class="entity" data-qualified-name="AP.Interface de Usu.rio.ITelaInscri..o" data-source-line="11" id="ent0005"><rect fill="#F1F1F1" height="48" rx="2.5" ry="2.5" style="stroke:#181818;stroke-width:0.5;" width="132.2432" x="243.88" y="211.5344"/><ellipse cx="258.88" cy="227.5344" fill="#ADD1B2" rx="11" ry="11" style="stroke:#181818;stroke-width:1;"/><path d="M261.8488,233.175 Q261.2706,233.4719 260.63,233.6125 Q259.9894,233.7687 259.2863,233.7687 Q256.7863,233.7687 255.4581,232.1281 Q254.1456,230.4719 254.1456,227.3469 Q254.1456,224.2219 255.4581,222.5656 Q256.7863,220.9094 259.2863,220.9094 Q259.9894,220.9094 260.63,221.0656 Q261.2863,221.2219 261.8488,221.5187 L261.8488,224.2375 Q261.2238,223.6594 260.63,223.3937 Q260.0363,223.1125 259.4113,223.1125 Q258.0675,223.1125 257.38,224.1906 Q256.6925,225.2531 256.6925,227.3469 Q256.6925,229.4406 257.38,230.5187 Q258.0675,231.5812 259.4113,231.5812 Q260.0363,231.5812 260.63,231.3156 Q261.2238,231.0344 261.8488,230.4562 L261.8488,233.175 Z " fill="#000000"/><text fill="#000000" font-family="sans-serif" font-size="14" lengthAdjust="spacing" textLength="96.2432" x="274.88" y="232.3811">ITelaInscri&#231;&#227;o</text><line style="stroke:#181818;stroke-width:0.5;" x1="244.88" x2="375.1232" y1="243.5344" y2="243.5344"/><line style="stroke:#181818;stroke-width:0.5;" x1="244.88" x2="375.1232" y1="251.5344" y2="251.5344"/></g><!--class ITelaResultados--><g class="entity" data-qualified-name="AP.Interface de Usu.rio.ITelaResultados" data-source-line="12" id="ent0006"><rect fill="#F1F1F1" height="48" rx="2.5" ry="2.5" style="stroke:#181818;stroke-width:0.5;" width="146.9746" x="411.51" y="211.5344"/><ellipse cx="426.51" cy="227.5344" fill="#ADD1B2" rx="11" ry="11" style="stroke:#181818;stroke-width:1;"/><path d="M429.4788,233.175 Q428.9006,233.4719 428.26,233.6125 Q427.6194,233.7687 426.9163,233.7687 Q424.4163,233.7687 423.0881,232.1281 Q421.7756,230.4719 421.7756,227.3469 Q421.7756,224.2219 423.0881,222.5656 Q424.4163,220.9094 426.9163,220.9094 Q427.6194,220.9094 428.26,221.0656 Q428.9163,221.2219 429.4788,221.5187 L429.4788,224.2375 Q428.8538,223.6594 428.26,223.3937 Q427.6663,223.1125 427.0413,223.1125 Q425.6975,223.1125 425.01,224.1906 Q424.3225,225.2531 424.3225,227.3469 Q424.3225,229.4406 425.01,230.5187 Q425.6975,231.5812 427.0413,231.5812 Q427.6663,231.5812 428.26,231.3156 Q428.8538,231.0344 429.4788,230.4562 L429.4788,233.175 Z " fill="#000000"/><text fill="#000000" font-family="sans-serif" font-size="14" lengthAdjust="spacing" textLength="110.9746" x="442.51" y="232.3811">ITelaResultados</text><line style="stroke:#181818;stroke-width:0.5;" x1="412.51" x2="557.4846" y1="243.5344" y2="243.5344"/><line style="stroke:#181818;stroke-width:0.5;" x1="412.51" x2="557.4846" y1="251.5344" y2="251.5344"/></g><!--class ITelaRelat?rios--><g class="entity" data-qualified-name="AP.Interface de Usu.rio.ITelaRelat.rios" data-source-line="13" id="ent0007"><rect fill="#F1F1F1" height="48" rx="2.5" ry="2.5" style="stroke:#181818;stroke-width:0.5;" width="140.1318" x="61.93" y="430.5344"/><ellipse cx="76.93" cy="446.5344" fill="#ADD1B2" rx="11" ry="11" style="stroke:#181818;stroke-width:1;"/><path d="M79.8988,452.175 Q79.3206,452.4719 78.68,452.6125 Q78.0394,452.7687 77.3363,452.7687 Q74.8363,452.7687 73.5081,451.1281 Q72.1956,449.4719 72.1956,446.3469 Q72.1956,443.2219 73.5081,441.5656 Q74.8363,439.9094 77.3363,439.9094 Q78.0394,439.9094 78.68,440.0656 Q79.3363,440.2219 79.8988,440.5187 L79.8988,443.2375 Q79.2738,442.6594 78.68,442.3937 Q78.0863,442.1125 77.4613,442.1125 Q76.1175,442.1125 75.43,443.1906 Q74.7425,444.2531 74.7425,446.3469 Q74.7425,448.4406 75.43,449.5187 Q76.1175,450.5812 77.4613,450.5812 Q78.0863,450.5812 78.68,450.3156 Q79.2738,450.0344 79.8988,449.4562 L79.8988,452.175 Z " fill="#000000"/><text fill="#000000" font-family="sans-serif" font-size="14" lengthAdjust="spacing" textLength="104.1318" x="92.93" y="451.3811">ITelaRelat&#243;rios</text><line style="stroke:#181818;stroke-width:0.5;" x1="62.93" x2="201.0618" y1="462.5344" y2="462.5344"/><line style="stroke:#181818;stroke-width:0.5;" x1="62.93" x2="201.0618" y1="470.5344" y2="470.5344"/></g><!--class ITelaAloca??o--><g class="entity" data-qualified-name="AP.Interface de Usu.rio.ITelaAloca..o" data-source-line="14" id="ent0008"><rect fill="#F1F1F1" height="48" rx="2.5" ry="2.5" style="stroke:#181818;stroke-width:0.5;" width="132.9131" x="237.54" y="430.5344"/><ellipse cx="252.54" cy="446.5344" fill="#ADD1B2" rx="11" ry="11" style="stroke:#181818;stroke-width:1;"/><path d="M255.5088,452.175 Q254.9306,452.4719 254.29,452.6125 Q253.6494,452.7687 252.9463,452.7687 Q250.4463,452.7687 249.1181,451.1281 Q247.8056,449.4719 247.8056,446.3469 Q247.8056,443.2219 249.1181,441.5656 Q250.4463,439.9094 252.9463,439.9094 Q253.6494,439.9094 254.29,440.0656 Q254.9463,440.2219 255.5088,440.5187 L255.5088,443.2375 Q254.8838,442.6594 254.29,442.3937 Q253.6963,442.1125 253.0713,442.1125 Q251.7275,442.1125 251.04,443.1906 Q250.3525,444.2531 250.3525,446.3469 Q250.3525,448.4406 251.04,449.5187 Q251.7275,450.5812 253.0713,450.5812 Q253.6963,450.5812 254.29,450.3156 Q254.8838,450.0344 255.5088,449.4562 L255.5088,452.175 Z " fill="#000000"/><text fill="#000000" font-family="sans-serif" font-size="14" lengthAdjust="spacing" textLength="96.9131" x="268.54" y="451.3811">ITelaAloca&#231;&#227;o</text><line style="stroke:#181818;stroke-width:0.5;" x1="238.54" x2="369.4531" y1="462.5344" y2="462.5344"/><line style="stroke:#181818;stroke-width:0.5;" x1="238.54" x2="369.4531" y1="470.5344" y2="470.5344"/></g><!--class CtrlCompeti??o--><g class="entity" data-qualified-name="AP.Controladores.CtrlCompeti..o" data-source-line="17" id="ent0010"><rect fill="#F1F1F1" height="48" rx="2.5" ry="2.5" style="stroke:#181818;stroke-width:0.5;" width="144.6094" x="613.7" y="211.5344"/><ellipse cx="628.7" cy="227.5344" fill="#ADD1B2" rx="11" ry="11" style="stroke:#181818;stroke-width:1;"/><path d="M631.6688,233.175 Q631.0906,233.4719 630.45,233.6125 Q629.8094,233.7687 629.1063,233.7687 Q626.6063,233.7687 625.2781,232.1281 Q623.9656,230.4719 623.9656,227.3469 Q623.9656,224.2219 625.2781,222.5656 Q626.6063,220.9094 629.1063,220.9094 Q629.8094,220.9094 630.45,221.0656 Q631.1063,221.2219 631.6688,221.5187 L631.6688,224.2375 Q631.0438,223.6594 630.45,223.3937 Q629.8563,223.1125 629.2313,223.1125 Q627.8875,223.1125 627.2,224.1906 Q626.5125,225.2531 626.5125,227.3469 Q626.5125,229.4406 627.2,230.5187 Q627.8875,231.5812 629.2313,231.5812 Q629.8563,231.5812 630.45,231.3156 Q631.0438,231.0344 631.6688,230.4562 L631.6688,233.175 Z " fill="#000000"/><text fill="#000000" font-family="sans-serif" font-size="14" lengthAdjust="spacing" textLength="108.6094" x="644.7" y="232.3811">CtrlCompeti&#231;&#227;o</text><line style="stroke:#181818;stroke-width:0.5;" x1="614.7" x2="757.3094" y1="243.5344" y2="243.5344"/><line style="stroke:#181818;stroke-width:0.5;" x1="614.7" x2="757.3094" y1="251.5344" y2="251.5344"/></g><!--class CtrlInscri??o--><g class="entity" data-qualified-name="AP.Controladores.CtrlInscri..o" data-source-line="18" id="ent0011"><rect fill="#F1F1F1" height="48" rx="2.5" ry="2.5" style="stroke:#181818;stroke-width:0.5;" width="123.3906" x="793.3" y="211.5344"/><ellipse cx="808.3" cy="227.5344" fill="#ADD1B2" rx="11" ry="11" style="stroke:#181818;stroke-width:1;"/><path d="M811.2688,233.175 Q810.6906,233.4719 810.05,233.6125 Q809.4094,233.7687 808.7063,233.7687 Q806.2063,233.7687 804.8781,232.1281 Q803.5656,230.4719 803.5656,227.3469 Q803.5656,224.2219 804.8781,222.5656 Q806.2063,220.9094 808.7063,220.9094 Q809.4094,220.9094 810.05,221.0656 Q810.7063,221.2219 811.2688,221.5187 L811.2688,224.2375 Q810.6438,223.6594 810.05,223.3937 Q809.4563,223.1125 808.8313,223.1125 Q807.4875,223.1125 806.8,224.1906 Q806.1125,225.2531 806.1125,227.3469 Q806.1125,229.4406 806.8,230.5187 Q807.4875,231.5812 808.8313,231.5812 Q809.4563,231.5812 810.05,231.3156 Q810.6438,231.0344 811.2688,230.4562 L811.2688,233.175 Z " fill="#000000"/><text fill="#000000" font-family="sans-serif" font-size="14" lengthAdjust="spacing" textLength="87.3906" x="824.3" y="232.3811">CtrlInscri&#231;&#227;o</text><line style="stroke:#181818;stroke-width:0.5;" x1="794.3" x2="915.6906" y1="243.5344" y2="243.5344"/><line style="stroke:#181818;stroke-width:0.5;" x1="794.3" x2="915.6906" y1="251.5344" y2="251.5344"/></g><!--class CtrlAloca??o--><g class="entity" data-qualified-name="AP.Controladores.CtrlAloca..o" data-source-line="19" id="ent0012"><rect fill="#F1F1F1" height="48" rx="2.5" ry="2.5" style="stroke:#181818;stroke-width:0.5;" width="124.0605" x="951.97" y="211.5344"/><ellipse cx="966.97" cy="227.5344" fill="#ADD1B2" rx="11" ry="11" style="stroke:#181818;stroke-width:1;"/><path d="M969.9388,233.175 Q969.3606,233.4719 968.72,233.6125 Q968.0794,233.7687 967.3763,233.7687 Q964.8763,233.7687 963.5481,232.1281 Q962.2356,230.4719 962.2356,227.3469 Q962.2356,224.2219 963.5481,222.5656 Q964.8763,220.9094 967.3763,220.9094 Q968.0794,220.9094 968.72,221.0656 Q969.3763,221.2219 969.9388,221.5187 L969.9388,224.2375 Q969.3138,223.6594 968.72,223.3937 Q968.1263,223.1125 967.5013,223.1125 Q966.1575,223.1125 965.47,224.1906 Q964.7825,225.2531 964.7825,227.3469 Q964.7825,229.4406 965.47,230.5187 Q966.1575,231.5812 967.5013,231.5812 Q968.1263,231.5812 968.72,231.3156 Q969.3138,231.0344 969.9388,230.4562 L969.9388,233.175 Z " fill="#000000"/><text fill="#000000" font-family="sans-serif" font-size="14" lengthAdjust="spacing" textLength="88.0605" x="982.97" y="232.3811">CtrlAloca&#231;&#227;o</text><line style="stroke:#181818;stroke-width:0.5;" x1="952.97" x2="1075.0305" y1="243.5344" y2="243.5344"/><line style="stroke:#181818;stroke-width:0.5;" x1="952.97" x2="1075.0305" y1="251.5344" y2="251.5344"/></g><!--class CtrlResultados--><g class="entity" data-qualified-name="AP.Controladores.CtrlResultados" data-source-line="20" id="ent0013"><rect fill="#F1F1F1" height="48" rx="2.5" ry="2.5" style="stroke:#181818;stroke-width:0.5;" width="138.1221" x="1110.94" y="211.5344"/><ellipse cx="1125.94" cy="227.5344" fill="#ADD1B2" rx="11" ry="11" style="stroke:#181818;stroke-width:1;"/><path d="M1128.9088,233.175 Q1128.3306,233.4719 1127.69,233.6125 Q1127.0494,233.7687 1126.3463,233.7687 Q1123.8463,233.7687 1122.5181,232.1281 Q1121.2056,230.4719 1121.2056,227.3469 Q1121.2056,224.2219 1122.5181,222.5656 Q1123.8463,220.9094 1126.3463,220.9094 Q1127.0494,220.9094 1127.69,221.0656 Q1128.3463,221.2219 1128.9088,221.5187 L1128.9088,224.2375 Q1128.2838,223.6594 1127.69,223.3937 Q1127.0963,223.1125 1126.4713,223.1125 Q1125.1275,223.1125 1124.44,224.1906 Q1123.7525,225.2531 1123.7525,227.3469 Q1123.7525,229.4406 1124.44,230.5187 Q1125.1275,231.5812 1126.4713,231.5812 Q1127.0963,231.5812 1127.69,231.3156 Q1128.2838,231.0344 1128.9088,230.4562 L1128.9088,233.175 Z " fill="#000000"/><text fill="#000000" font-family="sans-serif" font-size="14" lengthAdjust="spacing" textLength="102.1221" x="1141.94" y="232.3811">CtrlResultados</text><line style="stroke:#181818;stroke-width:0.5;" x1="1111.94" x2="1248.0621" y1="243.5344" y2="243.5344"/><line style="stroke:#181818;stroke-width:0.5;" x1="1111.94" x2="1248.0621" y1="251.5344" y2="251.5344"/></g><!--class CtrlRelat?rios--><g class="entity" data-qualified-name="AP.Controladores.CtrlRelat.rios" data-source-line="21" id="ent0014"><rect fill="#F1F1F1" height="48" rx="2.5" ry="2.5" style="stroke:#181818;stroke-width:0.5;" width="131.2793" x="1284.36" y="211.5344"/><ellipse cx="1299.36" cy="227.5344" fill="#ADD1B2" rx="11" ry="11" style="stroke:#181818;stroke-width:1;"/><path d="M1302.3288,233.175 Q1301.7506,233.4719 1301.11,233.6125 Q1300.4694,233.7687 1299.7663,233.7687 Q1297.2663,233.7687 1295.9381,232.1281 Q1294.6256,230.4719 1294.6256,227.3469 Q1294.6256,224.2219 1295.9381,222.5656 Q1297.2663,220.9094 1299.7663,220.9094 Q1300.4694,220.9094 1301.11,221.0656 Q1301.7663,221.2219 1302.3288,221.5187 L1302.3288,224.2375 Q1301.7038,223.6594 1301.11,223.3937 Q1300.5163,223.1125 1299.8913,223.1125 Q1298.5475,223.1125 1297.86,224.1906 Q1297.1725,225.2531 1297.1725,227.3469 Q1297.1725,229.4406 1297.86,230.5187 Q1298.5475,231.5812 1299.8913,231.5812 Q1300.5163,231.5812 1301.11,231.3156 Q1301.7038,231.0344 1302.3288,230.4562 L1302.3288,233.175 Z " fill="#000000"/><text fill="#000000" font-family="sans-serif" font-size="14" lengthAdjust="spacing" textLength="95.2793" x="1315.36" y="232.3811">CtrlRelat&#243;rios</text><line style="stroke:#181818;stroke-width:0.5;" x1="1285.36" x2="1414.6393" y1="243.5344" y2="243.5344"/><line style="stroke:#181818;stroke-width:0.5;" x1="1285.36" x2="1414.6393" y1="251.5344" y2="251.5344"/></g><!--class Atleta--><g class="entity" data-qualified-name="NG.Entidades.Atleta" data-source-line="28" id="ent0017"><rect fill="#F1F1F1" height="48" rx="2.5" ry="2.5" style="stroke:#181818;stroke-width:0.5;" width="77.6377" x="1560.18" y="430.5344"/><ellipse cx="1575.18" cy="446.5344" fill="#ADD1B2" rx="11" ry="11" style="stroke:#181818;stroke-width:1;"/><path d="M1578.1488,452.175 Q1577.5706,452.4719 1576.93,452.6125 Q1576.2894,452.7687 1575.5863,452.7687 Q1573.0863,452.7687 1571.7581,451.1281 Q1570.4456,449.4719 1570.4456,446.3469 Q1570.4456,443.2219 1571.7581,441.5656 Q1573.0863,439.9094 1575.5863,439.9094 Q1576.2894,439.9094 1576.93,440.0656 Q1577.5863,440.2219 1578.1488,440.5187 L1578.1488,443.2375 Q1577.5238,442.6594 1576.93,442.3937 Q1576.3363,442.1125 1575.7113,442.1125 Q1574.3675,442.1125 1573.68,443.1906 Q1572.9925,444.2531 1572.9925,446.3469 Q1572.9925,448.4406 1573.68,449.5187 Q1574.3675,450.5812 1575.7113,450.5812 Q1576.3363,450.5812 1576.93,450.3156 Q1577.5238,450.0344 1578.1488,449.4562 L1578.1488,452.175 Z " fill="#000000"/><text fill="#000000" font-family="sans-serif" font-size="14" lengthAdjust="spacing" textLength="41.6377" x="1591.18" y="451.3811">Atleta</text><line style="stroke:#181818;stroke-width:0.5;" x1="1561.18" x2="1636.8177" y1="462.5344" y2="462.5344"/><line style="stroke:#181818;stroke-width:0.5;" x1="1561.18" x2="1636.8177" y1="470.5344" y2="470.5344"/></g><!--class Competi??o--><g class="entity" data-qualified-name="NG.Entidades.Competi..o" data-source-line="29" id="ent0018"><rect fill="#F1F1F1" height="48" rx="2.5" ry="2.5" style="stroke:#181818;stroke-width:0.5;" width="119.6992" x="1673.15" y="430.5344"/><ellipse cx="1688.15" cy="446.5344" fill="#ADD1B2" rx="11" ry="11" style="stroke:#181818;stroke-width:1;"/><path d="M1691.1188,452.175 Q1690.5406,452.4719 1689.9,452.6125 Q1689.2594,452.7687 1688.5563,452.7687 Q1686.0563,452.7687 1684.7281,451.1281 Q1683.4156,449.4719 1683.4156,446.3469 Q1683.4156,443.2219 1684.7281,441.5656 Q1686.0563,439.9094 1688.5563,439.9094 Q1689.2594,439.9094 1689.9,440.0656 Q1690.5563,440.2219 1691.1188,440.5187 L1691.1188,443.2375 Q1690.4938,442.6594 1689.9,442.3937 Q1689.3063,442.1125 1688.6813,442.1125 Q1687.3375,442.1125 1686.65,443.1906 Q1685.9625,444.2531 1685.9625,446.3469 Q1685.9625,448.4406 1686.65,449.5187 Q1687.3375,450.5812 1688.6813,450.5812 Q1689.3063,450.5812 1689.9,450.3156 Q1690.4938,450.0344 1691.1188,449.4562 L1691.1188,452.175 Z " fill="#000000"/><text fill="#000000" font-family="sans-serif" font-size="14" lengthAdjust="spacing" textLength="83.6992" x="1704.15" y="451.3811">Competi&#231;&#227;o</text><line style="stroke:#181818;stroke-width:0.5;" x1="1674.15" x2="1791.8492" y1="462.5344" y2="462.5344"/><line style="stroke:#181818;stroke-width:0.5;" x1="1674.15" x2="1791.8492" y1="470.5344" y2="470.5344"/></g><!--class Resultado--><g class="entity" data-qualified-name="NG.Entidades.Resultado" data-source-line="30" id="ent0019"><rect fill="#F1F1F1" height="48" rx="2.5" ry="2.5" style="stroke:#181818;stroke-width:0.5;" width="105.918" x="1828.04" y="430.5344"/><ellipse cx="1843.04" cy="446.5344" fill="#ADD1B2" rx="11" ry="11" style="stroke:#181818;stroke-width:1;"/><path d="M1846.0088,452.175 Q1845.4306,452.4719 1844.79,452.6125 Q1844.1494,452.7687 1843.4463,452.7687 Q1840.9463,452.7687 1839.6181,451.1281 Q1838.3056,449.4719 1838.3056,446.3469 Q1838.3056,443.2219 1839.6181,441.5656 Q1840.9463,439.9094 1843.4463,439.9094 Q1844.1494,439.9094 1844.79,440.0656 Q1845.4463,440.2219 1846.0088,440.5187 L1846.0088,443.2375 Q1845.3838,442.6594 1844.79,442.3937 Q1844.1963,442.1125 1843.5713,442.1125 Q1842.2275,442.1125 1841.54,443.1906 Q1840.8525,444.2531 1840.8525,446.3469 Q1840.8525,448.4406 1841.54,449.5187 Q1842.2275,450.5812 1843.5713,450.5812 Q1844.1963,450.5812 1844.79,450.3156 Q1845.3838,450.0344 1846.0088,449.4562 L1846.0088,452.175 Z " fill="#000000"/><text fill="#000000" font-family="sans-serif" font-size="14" lengthAdjust="spacing" textLength="69.918" x="1859.04" y="451.3811">Resultado</text><line style="stroke:#181818;stroke-width:0.5;" x1="1829.04" x2="1932.958" y1="462.5344" y2="462.5344"/><line style="stroke:#181818;stroke-width:0.5;" x1="1829.04" x2="1932.958" y1="470.5344" y2="470.5344"/></g><!--class Pa?s--><g class="entity" data-qualified-name="NG.Entidades.Pa.s" data-source-line="31" id="ent0020"><rect fill="#F1F1F1" height="48" rx="2.5" ry="2.5" style="stroke:#181818;stroke-width:0.5;" width="64.2051" x="1572.9" y="689.5344"/><ellipse cx="1587.9" cy="705.5344" fill="#ADD1B2" rx="11" ry="11" style="stroke:#181818;stroke-width:1;"/><path d="M1590.8688,711.175 Q1590.2906,711.4719 1589.65,711.6125 Q1589.0094,711.7688 1588.3063,711.7688 Q1585.8063,711.7688 1584.4781,710.1281 Q1583.1656,708.4719 1583.1656,705.3469 Q1583.1656,702.2219 1584.4781,700.5656 Q1585.8063,698.9094 1588.3063,698.9094 Q1589.0094,698.9094 1589.65,699.0656 Q1590.3063,699.2219 1590.8688,699.5188 L1590.8688,702.2375 Q1590.2438,701.6594 1589.65,701.3938 Q1589.0563,701.1125 1588.4313,701.1125 Q1587.0875,701.1125 1586.4,702.1906 Q1585.7125,703.2531 1585.7125,705.3469 Q1585.7125,707.4406 1586.4,708.5188 Q1587.0875,709.5813 1588.4313,709.5813 Q1589.0563,709.5813 1589.65,709.3156 Q1590.2438,709.0344 1590.8688,708.4563 L1590.8688,711.175 Z " fill="#000000"/><text fill="#000000" font-family="sans-serif" font-size="14" lengthAdjust="spacing" textLength="28.2051" x="1603.9" y="710.3811">Pa&#237;s</text><line style="stroke:#181818;stroke-width:0.5;" x1="1573.9" x2="1636.1051" y1="721.5344" y2="721.5344"/><line style="stroke:#181818;stroke-width:0.5;" x1="1573.9" x2="1636.1051" y1="729.5344" y2="729.5344"/></g><!--class Local--><g class="entity" data-qualified-name="NG.Entidades.Local" data-source-line="32" id="ent0021"><rect fill="#F1F1F1" height="48" rx="2.5" ry="2.5" style="stroke:#181818;stroke-width:0.5;" width="72.5313" x="1671.73" y="689.5344"/><ellipse cx="1686.73" cy="705.5344" fill="#ADD1B2" rx="11" ry="11" style="stroke:#181818;stroke-width:1;"/><path d="M1689.6988,711.175 Q1689.1206,711.4719 1688.48,711.6125 Q1687.8394,711.7688 1687.1363,711.7688 Q1684.6363,711.7688 1683.3081,710.1281 Q1681.9956,708.4719 1681.9956,705.3469 Q1681.9956,702.2219 1683.3081,700.5656 Q1684.6363,698.9094 1687.1363,698.9094 Q1687.8394,698.9094 1688.48,699.0656 Q1689.1363,699.2219 1689.6988,699.5188 L1689.6988,702.2375 Q1689.0738,701.6594 1688.48,701.3938 Q1687.8863,701.1125 1687.2613,701.1125 Q1685.9175,701.1125 1685.23,702.1906 Q1684.5425,703.2531 1684.5425,705.3469 Q1684.5425,707.4406 1685.23,708.5188 Q1685.9175,709.5813 1687.2613,709.5813 Q1687.8863,709.5813 1688.48,709.3156 Q1689.0738,709.0344 1689.6988,708.4563 L1689.6988,711.175 Z " fill="#000000"/><text fill="#000000" font-family="sans-serif" font-size="14" lengthAdjust="spacing" textLength="36.5313" x="1702.73" y="710.3811">Local</text><line style="stroke:#181818;stroke-width:0.5;" x1="1672.73" x2="1743.2613" y1="721.5344" y2="721.5344"/><line style="stroke:#181818;stroke-width:0.5;" x1="1672.73" x2="1743.2613" y1="729.5344" y2="729.5344"/></g><!--class Medalha--><g class="entity" data-qualified-name="NG.Entidades.Medalha" data-source-line="33" id="ent0022"><rect fill="#F1F1F1" height="48" rx="2.5" ry="2.5" style="stroke:#181818;stroke-width:0.5;" width="95.5" x="1779.25" y="689.5344"/><ellipse cx="1794.25" cy="705.5344" fill="#ADD1B2" rx="11" ry="11" style="stroke:#181818;stroke-width:1;"/><path d="M1797.2188,711.175 Q1796.6406,711.4719 1796,711.6125 Q1795.3594,711.7688 1794.6563,711.7688 Q1792.1563,711.7688 1790.8281,710.1281 Q1789.5156,708.4719 1789.5156,705.3469 Q1789.5156,702.2219 1790.8281,700.5656 Q1792.1563,698.9094 1794.6563,698.9094 Q1795.3594,698.9094 1796,699.0656 Q1796.6563,699.2219 1797.2188,699.5188 L1797.2188,702.2375 Q1796.5938,701.6594 1796,701.3938 Q1795.4063,701.1125 1794.7813,701.1125 Q1793.4375,701.1125 1792.75,702.1906 Q1792.0625,703.2531 1792.0625,705.3469 Q1792.0625,707.4406 1792.75,708.5188 Q1793.4375,709.5813 1794.7813,709.5813 Q1795.4063,709.5813 1796,709.3156 Q1796.5938,709.0344 1797.2188,708.4563 L1797.2188,711.175 Z " fill="#000000"/><text fill="#000000" font-family="sans-serif" font-size="14" lengthAdjust="spacing" textLength="59.5" x="1810.25" y="710.3811">Medalha</text><line style="stroke:#181818;stroke-width:0.5;" x1="1780.25" x2="1873.75" y1="721.5344" y2="721.5344"/><line style="stroke:#181818;stroke-width:0.5;" x1="1780.25" x2="1873.75" y1="729.5344" y2="729.5344"/></g><!--class Inscri??o--><g class="entity" data-qualified-name="NG.Entidades.Inscri..o" data-source-line="34" id="ent0023"><rect fill="#F1F1F1" height="48" rx="2.5" ry="2.5" style="stroke:#181818;stroke-width:0.5;" width="98.4805" x="1559.76" y="908.5344"/><ellipse cx="1574.76" cy="924.5344" fill="#ADD1B2" rx="11" ry="11" style="stroke:#181818;stroke-width:1;"/><path d="M1577.7288,930.175 Q1577.1506,930.4719 1576.51,930.6125 Q1575.8694,930.7688 1575.1663,930.7688 Q1572.6663,930.7688 1571.3381,929.1281 Q1570.0256,927.4719 1570.0256,924.3469 Q1570.0256,921.2219 1571.3381,919.5656 Q1572.6663,917.9094 1575.1663,917.9094 Q1575.8694,917.9094 1576.51,918.0656 Q1577.1663,918.2219 1577.7288,918.5188 L1577.7288,921.2375 Q1577.1038,920.6594 1576.51,920.3938 Q1575.9163,920.1125 1575.2913,920.1125 Q1573.9475,920.1125 1573.26,921.1906 Q1572.5725,922.2531 1572.5725,924.3469 Q1572.5725,926.4406 1573.26,927.5188 Q1573.9475,928.5813 1575.2913,928.5813 Q1575.9163,928.5813 1576.51,928.3156 Q1577.1038,928.0344 1577.7288,927.4563 L1577.7288,930.175 Z " fill="#000000"/><text fill="#000000" font-family="sans-serif" font-size="14" lengthAdjust="spacing" textLength="62.4805" x="1590.76" y="929.3811">Inscri&#231;&#227;o</text><line style="stroke:#181818;stroke-width:0.5;" x1="1560.76" x2="1657.2405" y1="940.5344" y2="940.5344"/><line style="stroke:#181818;stroke-width:0.5;" x1="1560.76" x2="1657.2405" y1="948.5344" y2="948.5344"/></g><!--class Aloca??o--><g class="entity" data-qualified-name="NG.Entidades.Aloca..o" data-source-line="35" id="ent0024"><rect fill="#F1F1F1" height="48" rx="2.5" ry="2.5" style="stroke:#181818;stroke-width:0.5;" width="99.1504" x="1693.42" y="908.5344"/><ellipse cx="1708.42" cy="924.5344" fill="#ADD1B2" rx="11" ry="11" style="stroke:#181818;stroke-width:1;"/><path d="M1711.3888,930.175 Q1710.8106,930.4719 1710.17,930.6125 Q1709.5294,930.7688 1708.8263,930.7688 Q1706.3263,930.7688 1704.9981,929.1281 Q1703.6856,927.4719 1703.6856,924.3469 Q1703.6856,921.2219 1704.9981,919.5656 Q1706.3263,917.9094 1708.8263,917.9094 Q1709.5294,917.9094 1710.17,918.0656 Q1710.8263,918.2219 1711.3888,918.5188 L1711.3888,921.2375 Q1710.7638,920.6594 1710.17,920.3938 Q1709.5763,920.1125 1708.9513,920.1125 Q1707.6075,920.1125 1706.92,921.1906 Q1706.2325,922.2531 1706.2325,924.3469 Q1706.2325,926.4406 1706.92,927.5188 Q1707.6075,928.5813 1708.9513,928.5813 Q1709.5763,928.5813 1710.17,928.3156 Q1710.7638,928.0344 1711.3888,927.4563 L1711.3888,930.175 Z " fill="#000000"/><text fill="#000000" font-family="sans-serif" font-size="14" lengthAdjust="spacing" textLength="63.1504" x="1724.42" y="929.3811">Aloca&#231;&#227;o</text><line style="stroke:#181818;stroke-width:0.5;" x1="1694.42" x2="1791.5704" y1="940.5344" y2="940.5344"/><line style="stroke:#181818;stroke-width:0.5;" x1="1694.42" x2="1791.5704" y1="948.5344" y2="948.5344"/></g><!--class Servi?oCompeti??o--><g class="entity" data-qualified-name="NG.Servi.os.Servi.oCompeti..o" data-source-line="38" id="ent0026"><rect fill="#F1F1F1" height="48" rx="2.5" ry="2.5" style="stroke:#181818;stroke-width:0.5;" width="171.3926" x="1990.3" y="430.5344"/><ellipse cx="2005.3" cy="446.5344" fill="#ADD1B2" rx="11" ry="11" style="stroke:#181818;stroke-width:1;"/><path d="M2008.2688,452.175 Q2007.6906,452.4719 2007.05,452.6125 Q2006.4094,452.7687 2005.7063,452.7687 Q2003.2063,452.7687 2001.8781,451.1281 Q2000.5656,449.4719 2000.5656,446.3469 Q2000.5656,443.2219 2001.8781,441.5656 Q2003.2063,439.9094 2005.7063,439.9094 Q2006.4094,439.9094 2007.05,440.0656 Q2007.7063,440.2219 2008.2688,440.5187 L2008.2688,443.2375 Q2007.6438,442.6594 2007.05,442.3937 Q2006.4563,442.1125 2005.8313,442.1125 Q2004.4875,442.1125 2003.8,443.1906 Q2003.1125,444.2531 2003.1125,446.3469 Q2003.1125,448.4406 2003.8,449.5187 Q2004.4875,450.5812 2005.8313,450.5812 Q2006.4563,450.5812 2007.05,450.3156 Q2007.6438,450.0344 2008.2688,449.4562 L2008.2688,452.175 Z " fill="#000000"/><text fill="#000000" font-family="sans-serif" font-size="14" lengthAdjust="spacing" textLength="135.3926" x="2021.3" y="451.3811">Servi&#231;oCompeti&#231;&#227;o</text><line style="stroke:#181818;stroke-width:0.5;" x1="1991.3" x2="2160.6926" y1="462.5344" y2="462.5344"/><line style="stroke:#181818;stroke-width:0.5;" x1="1991.3" x2="2160.6926" y1="470.5344" y2="470.5344"/></g><!--class Servi?oInscri??o--><g class="entity" data-qualified-name="NG.Servi.os.Servi.oInscri..o" data-source-line="39" id="ent0027"><rect fill="#F1F1F1" height="48" rx="2.5" ry="2.5" style="stroke:#181818;stroke-width:0.5;" width="150.1738" x="2196.91" y="430.5344"/><ellipse cx="2211.91" cy="446.5344" fill="#ADD1B2" rx="11" ry="11" style="stroke:#181818;stroke-width:1;"/><path d="M2214.8788,452.175 Q2214.3006,452.4719 2213.66,452.6125 Q2213.0194,452.7687 2212.3163,452.7687 Q2209.8163,452.7687 2208.4881,451.1281 Q2207.1756,449.4719 2207.1756,446.3469 Q2207.1756,443.2219 2208.4881,441.5656 Q2209.8163,439.9094 2212.3163,439.9094 Q2213.0194,439.9094 2213.66,440.0656 Q2214.3163,440.2219 2214.8788,440.5187 L2214.8788,443.2375 Q2214.2538,442.6594 2213.66,442.3937 Q2213.0663,442.1125 2212.4413,442.1125 Q2211.0975,442.1125 2210.41,443.1906 Q2209.7225,444.2531 2209.7225,446.3469 Q2209.7225,448.4406 2210.41,449.5187 Q2211.0975,450.5812 2212.4413,450.5812 Q2213.0663,450.5812 2213.66,450.3156 Q2214.2538,450.0344 2214.8788,449.4562 L2214.8788,452.175 Z " fill="#000000"/><text fill="#000000" font-family="sans-serif" font-size="14" lengthAdjust="spacing" textLength="114.1738" x="2227.91" y="451.3811">Servi&#231;oInscri&#231;&#227;o</text><line style="stroke:#181818;stroke-width:0.5;" x1="2197.91" x2="2346.0838" y1="462.5344" y2="462.5344"/><line style="stroke:#181818;stroke-width:0.5;" x1="2197.91" x2="2346.0838" y1="470.5344" y2="470.5344"/></g><!--class Servi?oAloca??o--><g class="entity" data-qualified-name="NG.Servi.os.Servi.oAloca..o" data-source-line="40" id="ent0028"><rect fill="#F1F1F1" height="48" rx="2.5" ry="2.5" style="stroke:#181818;stroke-width:0.5;" width="150.8438" x="2382.58" y="430.5344"/><ellipse cx="2397.58" cy="446.5344" fill="#ADD1B2" rx="11" ry="11" style="stroke:#181818;stroke-width:1;"/><path d="M2400.5488,452.175 Q2399.9706,452.4719 2399.33,452.6125 Q2398.6894,452.7687 2397.9863,452.7687 Q2395.4863,452.7687 2394.1581,451.1281 Q2392.8456,449.4719 2392.8456,446.3469 Q2392.8456,443.2219 2394.1581,441.5656 Q2395.4863,439.9094 2397.9863,439.9094 Q2398.6894,439.9094 2399.33,440.0656 Q2399.9863,440.2219 2400.5488,440.5187 L2400.5488,443.2375 Q2399.9238,442.6594 2399.33,442.3937 Q2398.7363,442.1125 2398.1113,442.1125 Q2396.7675,442.1125 2396.08,443.1906 Q2395.3925,444.2531 2395.3925,446.3469 Q2395.3925,448.4406 2396.08,449.5187 Q2396.7675,450.5812 2398.1113,450.5812 Q2398.7363,450.5812 2399.33,450.3156 Q2399.9238,450.0344 2400.5488,449.4562 L2400.5488,452.175 Z " fill="#000000"/><text fill="#000000" font-family="sans-serif" font-size="14" lengthAdjust="spacing" textLength="114.8438" x="2413.58" y="451.3811">Servi&#231;oAloca&#231;&#227;o</text><line style="stroke:#181818;stroke-width:0.5;" x1="2383.58" x2="2532.4238" y1="462.5344" y2="462.5344"/><line style="stroke:#181818;stroke-width:0.5;" x1="2383.58" x2="2532.4238" y1="470.5344" y2="470.5344"/></g><!--class Servi?oResultados--><g class="entity" data-qualified-name="NG.Servi.os.Servi.oResultados" data-source-line="41" id="ent0029"><rect fill="#F1F1F1" height="48" rx="2.5" ry="2.5" style="stroke:#181818;stroke-width:0.5;" width="164.9053" x="2568.55" y="430.5344"/><ellipse cx="2583.55" cy="446.5344" fill="#ADD1B2" rx="11" ry="11" style="stroke:#181818;stroke-width:1;"/><path d="M2586.5188,452.175 Q2585.9406,452.4719 2585.3,452.6125 Q2584.6594,452.7687 2583.9563,452.7687 Q2581.4563,452.7687 2580.1281,451.1281 Q2578.8156,449.4719 2578.8156,446.3469 Q2578.8156,443.2219 2580.1281,441.5656 Q2581.4563,439.9094 2583.9563,439.9094 Q2584.6594,439.9094 2585.3,440.0656 Q2585.9563,440.2219 2586.5188,440.5187 L2586.5188,443.2375 Q2585.8938,442.6594 2585.3,442.3937 Q2584.7063,442.1125 2584.0813,442.1125 Q2582.7375,442.1125 2582.05,443.1906 Q2581.3625,444.2531 2581.3625,446.3469 Q2581.3625,448.4406 2582.05,449.5187 Q2582.7375,450.5812 2584.0813,450.5812 Q2584.7063,450.5812 2585.3,450.3156 Q2585.8938,450.0344 2586.5188,449.4562 L2586.5188,452.175 Z " fill="#000000"/><text fill="#000000" font-family="sans-serif" font-size="14" lengthAdjust="spacing" textLength="128.9053" x="2599.55" y="451.3811">Servi&#231;oResultados</text><line style="stroke:#181818;stroke-width:0.5;" x1="2569.55" x2="2732.4553" y1="462.5344" y2="462.5344"/><line style="stroke:#181818;stroke-width:0.5;" x1="2569.55" x2="2732.4553" y1="470.5344" y2="470.5344"/></g><!--class Servi?oRelat?rios--><g class="entity" data-qualified-name="NG.Servi.os.Servi.oRelat.rios" data-source-line="42" id="ent0030"><rect fill="#F1F1F1" height="48" rx="2.5" ry="2.5" style="stroke:#181818;stroke-width:0.5;" width="158.0625" x="2767.97" y="430.5344"/><ellipse cx="2782.97" cy="446.5344" fill="#ADD1B2" rx="11" ry="11" style="stroke:#181818;stroke-width:1;"/><path d="M2785.9388,452.175 Q2785.3606,452.4719 2784.72,452.6125 Q2784.0794,452.7687 2783.3763,452.7687 Q2780.8763,452.7687 2779.5481,451.1281 Q2778.2356,449.4719 2778.2356,446.3469 Q2778.2356,443.2219 2779.5481,441.5656 Q2780.8763,439.9094 2783.3763,439.9094 Q2784.0794,439.9094 2784.72,440.0656 Q2785.3763,440.2219 2785.9388,440.5187 L2785.9388,443.2375 Q2785.3138,442.6594 2784.72,442.3937 Q2784.1263,442.1125 2783.5013,442.1125 Q2782.1575,442.1125 2781.47,443.1906 Q2780.7825,444.2531 2780.7825,446.3469 Q2780.7825,448.4406 2781.47,449.5187 Q2782.1575,450.5812 2783.5013,450.5812 Q2784.1263,450.5812 2784.72,450.3156 Q2785.3138,450.0344 2785.9388,449.4562 L2785.9388,452.175 Z " fill="#000000"/><text fill="#000000" font-family="sans-serif" font-size="14" lengthAdjust="spacing" textLength="122.0625" x="2798.97" y="451.3811">Servi&#231;oRelat&#243;rios</text><line style="stroke:#181818;stroke-width:0.5;" x1="2768.97" x2="2925.0325" y1="462.5344" y2="462.5344"/><line style="stroke:#181818;stroke-width:0.5;" x1="2768.97" x2="2925.0325" y1="470.5344" y2="470.5344"/></g><!--class Servi?oValida??o--><g class="entity" data-qualified-name="NG.Servi.os.Servi.oValida..o" data-source-line="43" id="ent0031"><rect fill="#F1F1F1" height="48" rx="2.5" ry="2.5" style="stroke:#181818;stroke-width:0.5;" width="155.9365" x="2961.03" y="430.5344"/><ellipse cx="2976.03" cy="446.5344" fill="#ADD1B2" rx="11" ry="11" style="stroke:#181818;stroke-width:1;"/><path d="M2978.9988,452.175 Q2978.4206,452.4719 2977.78,452.6125 Q2977.1394,452.7687 2976.4363,452.7687 Q2973.9363,452.7687 2972.6081,451.1281 Q2971.2956,449.4719 2971.2956,446.3469 Q2971.2956,443.2219 2972.6081,441.5656 Q2973.9363,439.9094 2976.4363,439.9094 Q2977.1394,439.9094 2977.78,440.0656 Q2978.4363,440.2219 2978.9988,440.5187 L2978.9988,443.2375 Q2978.3738,442.6594 2977.78,442.3937 Q2977.1863,442.1125 2976.5613,442.1125 Q2975.2175,442.1125 2974.53,443.1906 Q2973.8425,444.2531 2973.8425,446.3469 Q2973.8425,448.4406 2974.53,449.5187 Q2975.2175,450.5812 2976.5613,450.5812 Q2977.1863,450.5812 2977.78,450.3156 Q2978.3738,450.0344 2978.9988,449.4562 L2978.9988,452.175 Z " fill="#000000"/><text fill="#000000" font-family="sans-serif" font-size="14" lengthAdjust="spacing" textLength="119.9365" x="2992.03" y="451.3811">Servi&#231;oValida&#231;&#227;o</text><line style="stroke:#181818;stroke-width:0.5;" x1="2962.03" x2="3115.9665" y1="462.5344" y2="462.5344"/><line style="stroke:#181818;stroke-width:0.5;" x1="2962.03" x2="3115.9665" y1="470.5344" y2="470.5344"/></g><!--class ValidadorInscri??o--><g class="entity" data-qualified-name="NG.Valida..es.ValidadorInscri..o" data-source-line="46" id="ent0033"><rect fill="#F1F1F1" height="48" rx="2.5" ry="2.5" style="stroke:#181818;stroke-width:0.5;" width="165.0898" x="3173.46" y="430.5344"/><ellipse cx="3188.46" cy="446.5344" fill="#ADD1B2" rx="11" ry="11" style="stroke:#181818;stroke-width:1;"/><path d="M3191.4288,452.175 Q3190.8506,452.4719 3190.21,452.6125 Q3189.5694,452.7687 3188.8663,452.7687 Q3186.3663,452.7687 3185.0381,451.1281 Q3183.7256,449.4719 3183.7256,446.3469 Q3183.7256,443.2219 3185.0381,441.5656 Q3186.3663,439.9094 3188.8663,439.9094 Q3189.5694,439.9094 3190.21,440.0656 Q3190.8663,440.2219 3191.4288,440.5187 L3191.4288,443.2375 Q3190.8038,442.6594 3190.21,442.3937 Q3189.6163,442.1125 3188.9913,442.1125 Q3187.6475,442.1125 3186.96,443.1906 Q3186.2725,444.2531 3186.2725,446.3469 Q3186.2725,448.4406 3186.96,449.5187 Q3187.6475,450.5812 3188.9913,450.5812 Q3189.6163,450.5812 3190.21,450.3156 Q3190.8038,450.0344 3191.4288,449.4562 L3191.4288,452.175 Z " fill="#000000"/><text fill="#000000" font-family="sans-serif" font-size="14" lengthAdjust="spacing" textLength="129.0898" x="3204.46" y="451.3811">ValidadorInscri&#231;&#227;o</text><line style="stroke:#181818;stroke-width:0.5;" x1="3174.46" x2="3337.5498" y1="462.5344" y2="462.5344"/><line style="stroke:#181818;stroke-width:0.5;" x1="3174.46" x2="3337.5498" y1="470.5344" y2="470.5344"/></g><!--class ValidadorConflito--><g class="entity" data-qualified-name="NG.Valida..es.ValidadorConflito" data-source-line="47" id="ent0034"><rect fill="#F1F1F1" height="48" rx="2.5" ry="2.5" style="stroke:#181818;stroke-width:0.5;" width="156.5859" x="3373.71" y="430.5344"/><ellipse cx="3388.71" cy="446.5344" fill="#ADD1B2" rx="11" ry="11" style="stroke:#181818;stroke-width:1;"/><path d="M3391.6788,452.175 Q3391.1006,452.4719 3390.46,452.6125 Q3389.8194,452.7687 3389.1163,452.7687 Q3386.6163,452.7687 3385.2881,451.1281 Q3383.9756,449.4719 3383.9756,446.3469 Q3383.9756,443.2219 3385.2881,441.5656 Q3386.6163,439.9094 3389.1163,439.9094 Q3389.8194,439.9094 3390.46,440.0656 Q3391.1163,440.2219 3391.6788,440.5187 L3391.6788,443.2375 Q3391.0538,442.6594 3390.46,442.3937 Q3389.8663,442.1125 3389.2413,442.1125 Q3387.8975,442.1125 3387.21,443.1906 Q3386.5225,444.2531 3386.5225,446.3469 Q3386.5225,448.4406 3387.21,449.5187 Q3387.8975,450.5812 3389.2413,450.5812 Q3389.8663,450.5812 3390.46,450.3156 Q3391.0538,450.0344 3391.6788,449.4562 L3391.6788,452.175 Z " fill="#000000"/><text fill="#000000" font-family="sans-serif" font-size="14" lengthAdjust="spacing" textLength="120.5859" x="3404.71" y="451.3811">ValidadorConflito</text><line style="stroke:#181818;stroke-width:0.5;" x1="3374.71" x2="3529.2959" y1="462.5344" y2="462.5344"/><line style="stroke:#181818;stroke-width:0.5;" x1="3374.71" x2="3529.2959" y1="470.5344" y2="470.5344"/></g><!--class ValidadorAloca??o--><g class="entity" data-qualified-name="NG.Valida..es.ValidadorAloca..o" data-source-line="48" id="ent0035"><rect fill="#F1F1F1" height="48" rx="2.5" ry="2.5" style="stroke:#181818;stroke-width:0.5;" width="165.7598" x="3565.12" y="430.5344"/><ellipse cx="3580.12" cy="446.5344" fill="#ADD1B2" rx="11" ry="11" style="stroke:#181818;stroke-width:1;"/><path d="M3583.0888,452.175 Q3582.5106,452.4719 3581.87,452.6125 Q3581.2294,452.7687 3580.5263,452.7687 Q3578.0263,452.7687 3576.6981,451.1281 Q3575.3856,449.4719 3575.3856,446.3469 Q3575.3856,443.2219 3576.6981,441.5656 Q3578.0263,439.9094 3580.5263,439.9094 Q3581.2294,439.9094 3581.87,440.0656 Q3582.5263,440.2219 3583.0888,440.5187 L3583.0888,443.2375 Q3582.4638,442.6594 3581.87,442.3937 Q3581.2763,442.1125 3580.6513,442.1125 Q3579.3075,442.1125 3578.62,443.1906 Q3577.9325,444.2531 3577.9325,446.3469 Q3577.9325,448.4406 3578.62,449.5187 Q3579.3075,450.5812 3580.6513,450.5812 Q3581.2763,450.5812 3581.87,450.3156 Q3582.4638,450.0344 3583.0888,449.4562 L3583.0888,452.175 Z " fill="#000000"/><text fill="#000000" font-family="sans-serif" font-size="14" lengthAdjust="spacing" textLength="129.7598" x="3596.12" y="451.3811">ValidadorAloca&#231;&#227;o</text><line style="stroke:#181818;stroke-width:0.5;" x1="3566.12" x2="3729.8798" y1="462.5344" y2="462.5344"/><line style="stroke:#181818;stroke-width:0.5;" x1="3566.12" x2="3729.8798" y1="470.5344" y2="470.5344"/></g><!--class ValidadorPa?s--><g class="entity" data-qualified-name="NG.Valida..es.ValidadorPa.s" data-source-line="49" id="ent0036"><rect fill="#F1F1F1" height="48" rx="2.5" ry="2.5" style="stroke:#181818;stroke-width:0.5;" width="130.8145" x="3765.59" y="430.5344"/><ellipse cx="3780.59" cy="446.5344" fill="#ADD1B2" rx="11" ry="11" style="stroke:#181818;stroke-width:1;"/><path d="M3783.5588,452.175 Q3782.9806,452.4719 3782.34,452.6125 Q3781.6994,452.7687 3780.9963,452.7687 Q3778.4963,452.7687 3777.1681,451.1281 Q3775.8556,449.4719 3775.8556,446.3469 Q3775.8556,443.2219 3777.1681,441.5656 Q3778.4963,439.9094 3780.9963,439.9094 Q3781.6994,439.9094 3782.34,440.0656 Q3782.9963,440.2219 3783.5588,440.5187 L3783.5588,443.2375 Q3782.9338,442.6594 3782.34,442.3937 Q3781.7463,442.1125 3781.1213,442.1125 Q3779.7775,442.1125 3779.09,443.1906 Q3778.4025,444.2531 3778.4025,446.3469 Q3778.4025,448.4406 3779.09,449.5187 Q3779.7775,450.5812 3781.1213,450.5812 Q3781.7463,450.5812 3782.34,450.3156 Q3782.9338,450.0344 3783.5588,449.4562 L3783.5588,452.175 Z " fill="#000000"/><text fill="#000000" font-family="sans-serif" font-size="14" lengthAdjust="spacing" textLength="94.8145" x="3796.59" y="451.3811">ValidadorPa&#237;s</text><line style="stroke:#181818;stroke-width:0.5;" x1="3766.59" x2="3895.4045" y1="462.5344" y2="462.5344"/><line style="stroke:#181818;stroke-width:0.5;" x1="3766.59" x2="3895.4045" y1="470.5344" y2="470.5344"/></g><!--class Reposit?rioAtleta--><g class="entity" data-qualified-name="PS.Reposit.rios.Reposit.rioAtleta" data-source-line="56" id="ent0039"><rect fill="#F1F1F1" height="48" rx="2.5" ry="2.5" style="stroke:#181818;stroke-width:0.5;" width="156.8799" x="4273.56" y="689.5344"/><ellipse cx="4288.56" cy="705.5344" fill="#ADD1B2" rx="11" ry="11" style="stroke:#181818;stroke-width:1;"/><path d="M4291.5288,711.175 Q4290.9506,711.4719 4290.31,711.6125 Q4289.6694,711.7688 4288.9663,711.7688 Q4286.4663,711.7688 4285.1381,710.1281 Q4283.8256,708.4719 4283.8256,705.3469 Q4283.8256,702.2219 4285.1381,700.5656 Q4286.4663,698.9094 4288.9663,698.9094 Q4289.6694,698.9094 4290.31,699.0656 Q4290.9663,699.2219 4291.5288,699.5188 L4291.5288,702.2375 Q4290.9038,701.6594 4290.31,701.3938 Q4289.7163,701.1125 4289.0913,701.1125 Q4287.7475,701.1125 4287.06,702.1906 Q4286.3725,703.2531 4286.3725,705.3469 Q4286.3725,707.4406 4287.06,708.5188 Q4287.7475,709.5813 4289.0913,709.5813 Q4289.7163,709.5813 4290.31,709.3156 Q4290.9038,709.0344 4291.5288,708.4563 L4291.5288,711.175 Z " fill="#000000"/><text fill="#000000" font-family="sans-serif" font-size="14" lengthAdjust="spacing" textLength="120.8799" x="4304.56" y="710.3811">Reposit&#243;rioAtleta</text><line style="stroke:#181818;stroke-width:0.5;" x1="4274.56" x2="4429.4399" y1="721.5344" y2="721.5344"/><line style="stroke:#181818;stroke-width:0.5;" x1="4274.56" x2="4429.4399" y1="729.5344" y2="729.5344"/></g><!--class Reposit?rioCompeti??o--><g class="entity" data-qualified-name="PS.Reposit.rios.Reposit.rioCompeti..o" data-source-line="57" id="ent0040"><rect fill="#F1F1F1" height="48" rx="2.5" ry="2.5" style="stroke:#181818;stroke-width:0.5;" width="198.9414" x="4039.53" y="689.5344"/><ellipse cx="4054.53" cy="705.5344" fill="#ADD1B2" rx="11" ry="11" style="stroke:#181818;stroke-width:1;"/><path d="M4057.4988,711.175 Q4056.9206,711.4719 4056.28,711.6125 Q4055.6394,711.7688 4054.9363,711.7688 Q4052.4363,711.7688 4051.1081,710.1281 Q4049.7956,708.4719 4049.7956,705.3469 Q4049.7956,702.2219 4051.1081,700.5656 Q4052.4363,698.9094 4054.9363,698.9094 Q4055.6394,698.9094 4056.28,699.0656 Q4056.9363,699.2219 4057.4988,699.5188 L4057.4988,702.2375 Q4056.8738,701.6594 4056.28,701.3938 Q4055.6863,701.1125 4055.0613,701.1125 Q4053.7175,701.1125 4053.03,702.1906 Q4052.3425,703.2531 4052.3425,705.3469 Q4052.3425,707.4406 4053.03,708.5188 Q4053.7175,709.5813 4055.0613,709.5813 Q4055.6863,709.5813 4056.28,709.3156 Q4056.8738,709.0344 4057.4988,708.4563 L4057.4988,711.175 Z " fill="#000000"/><text fill="#000000" font-family="sans-serif" font-size="14" lengthAdjust="spacing" textLength="162.9414" x="4070.53" y="710.3811">Reposit&#243;rioCompeti&#231;&#227;o</text><line style="stroke:#181818;stroke-width:0.5;" x1="4040.53" x2="4237.4714" y1="721.5344" y2="721.5344"/><line style="stroke:#181818;stroke-width:0.5;" x1="4040.53" x2="4237.4714" y1="729.5344" y2="729.5344"/></g><!--class Reposit?rioLocal--><g class="entity" data-qualified-name="PS.Reposit.rios.Reposit.rioLocal" data-source-line="58" id="ent0041"><rect fill="#F1F1F1" height="48" rx="2.5" ry="2.5" style="stroke:#181818;stroke-width:0.5;" width="151.7734" x="4465.11" y="689.5344"/><ellipse cx="4480.11" cy="705.5344" fill="#ADD1B2" rx="11" ry="11" style="stroke:#181818;stroke-width:1;"/><path d="M4483.0788,711.175 Q4482.5006,711.4719 4481.86,711.6125 Q4481.2194,711.7688 4480.5163,711.7688 Q4478.0163,711.7688 4476.6881,710.1281 Q4475.3756,708.4719 4475.3756,705.3469 Q4475.3756,702.2219 4476.6881,700.5656 Q4478.0163,698.9094 4480.5163,698.9094 Q4481.2194,698.9094 4481.86,699.0656 Q4482.5163,699.2219 4483.0788,699.5188 L4483.0788,702.2375 Q4482.4538,701.6594 4481.86,701.3938 Q4481.2663,701.1125 4480.6413,701.1125 Q4479.2975,701.1125 4478.61,702.1906 Q4477.9225,703.2531 4477.9225,705.3469 Q4477.9225,707.4406 4478.61,708.5188 Q4479.2975,709.5813 4480.6413,709.5813 Q4481.2663,709.5813 4481.86,709.3156 Q4482.4538,709.0344 4483.0788,708.4563 L4483.0788,711.175 Z " fill="#000000"/><text fill="#000000" font-family="sans-serif" font-size="14" lengthAdjust="spacing" textLength="115.7734" x="4496.11" y="710.3811">Reposit&#243;rioLocal</text><line style="stroke:#181818;stroke-width:0.5;" x1="4466.11" x2="4615.8834" y1="721.5344" y2="721.5344"/><line style="stroke:#181818;stroke-width:0.5;" x1="4466.11" x2="4615.8834" y1="729.5344" y2="729.5344"/></g><!--class Reposit?rioResultado--><g class="entity" data-qualified-name="PS.Reposit.rios.Reposit.rioResultado" data-source-line="59" id="ent0042"><rect fill="#F1F1F1" height="48" rx="2.5" ry="2.5" style="stroke:#181818;stroke-width:0.5;" width="185.1602" x="4651.42" y="689.5344"/><ellipse cx="4666.42" cy="705.5344" fill="#ADD1B2" rx="11" ry="11" style="stroke:#181818;stroke-width:1;"/><path d="M4669.3888,711.175 Q4668.8106,711.4719 4668.17,711.6125 Q4667.5294,711.7688 4666.8263,711.7688 Q4664.3263,711.7688 4662.9981,710.1281 Q4661.6856,708.4719 4661.6856,705.3469 Q4661.6856,702.2219 4662.9981,700.5656 Q4664.3263,698.9094 4666.8263,698.9094 Q4667.5294,698.9094 4668.17,699.0656 Q4668.8263,699.2219 4669.3888,699.5188 L4669.3888,702.2375 Q4668.7638,701.6594 4668.17,701.3938 Q4667.5763,701.1125 4666.9513,701.1125 Q4665.6075,701.1125 4664.92,702.1906 Q4664.2325,703.2531 4664.2325,705.3469 Q4664.2325,707.4406 4664.92,708.5188 Q4665.6075,709.5813 4666.9513,709.5813 Q4667.5763,709.5813 4668.17,709.3156 Q4668.7638,709.0344 4669.3888,708.4563 L4669.3888,711.175 Z " fill="#000000"/><text fill="#000000" font-family="sans-serif" font-size="14" lengthAdjust="spacing" textLength="149.1602" x="4682.42" y="710.3811">Reposit&#243;rioResultado</text><line style="stroke:#181818;stroke-width:0.5;" x1="4652.42" x2="4835.5802" y1="721.5344" y2="721.5344"/><line style="stroke:#181818;stroke-width:0.5;" x1="4652.42" x2="4835.5802" y1="729.5344" y2="729.5344"/></g><!--class Reposit?rioPa?s--><g class="entity" data-qualified-name="PS.Reposit.rios.Reposit.rioPa.s" data-source-line="60" id="ent0043"><rect fill="#F1F1F1" height="48" rx="2.5" ry="2.5" style="stroke:#181818;stroke-width:0.5;" width="143.4473" x="4871.28" y="689.5344"/><ellipse cx="4886.28" cy="705.5344" fill="#ADD1B2" rx="11" ry="11" style="stroke:#181818;stroke-width:1;"/><path d="M4889.2488,711.175 Q4888.6706,711.4719 4888.03,711.6125 Q4887.3894,711.7688 4886.6863,711.7688 Q4884.1863,711.7688 4882.8581,710.1281 Q4881.5456,708.4719 4881.5456,705.3469 Q4881.5456,702.2219 4882.8581,700.5656 Q4884.1863,698.9094 4886.6863,698.9094 Q4887.3894,698.9094 4888.03,699.0656 Q4888.6863,699.2219 4889.2488,699.5188 L4889.2488,702.2375 Q4888.6238,701.6594 4888.03,701.3938 Q4887.4363,701.1125 4886.8113,701.1125 Q4885.4675,701.1125 4884.78,702.1906 Q4884.0925,703.2531 4884.0925,705.3469 Q4884.0925,707.4406 4884.78,708.5188 Q4885.4675,709.5813 4886.8113,709.5813 Q4887.4363,709.5813 4888.03,709.3156 Q4888.6238,709.0344 4889.2488,708.4563 L4889.2488,711.175 Z " fill="#000000"/><text fill="#000000" font-family="sans-serif" font-size="14" lengthAdjust="spacing" textLength="107.4473" x="4902.28" y="710.3811">Reposit&#243;rioPa&#237;s</text><line style="stroke:#181818;stroke-width:0.5;" x1="4872.28" x2="5013.7273" y1="721.5344" y2="721.5344"/><line style="stroke:#181818;stroke-width:0.5;" x1="4872.28" x2="5013.7273" y1="729.5344" y2="729.5344"/></g><!--class MapeoAtleta--><g class="entity" data-qualified-name="PS.Mapeamento ORM.MapeoAtleta" data-source-line="63" id="ent0045"><rect fill="#F1F1F1" height="48" rx="2.5" ry="2.5" style="stroke:#181818;stroke-width:0.5;" width="124.3613" x="5070.82" y="689.5344"/><ellipse cx="5085.82" cy="705.5344" fill="#ADD1B2" rx="11" ry="11" style="stroke:#181818;stroke-width:1;"/><path d="M5088.7888,711.175 Q5088.2106,711.4719 5087.57,711.6125 Q5086.9294,711.7688 5086.2263,711.7688 Q5083.7263,711.7688 5082.3981,710.1281 Q5081.0856,708.4719 5081.0856,705.3469 Q5081.0856,702.2219 5082.3981,700.5656 Q5083.7263,698.9094 5086.2263,698.9094 Q5086.9294,698.9094 5087.57,699.0656 Q5088.2263,699.2219 5088.7888,699.5188 L5088.7888,702.2375 Q5088.1638,701.6594 5087.57,701.3938 Q5086.9763,701.1125 5086.3513,701.1125 Q5085.0075,701.1125 5084.32,702.1906 Q5083.6325,703.2531 5083.6325,705.3469 Q5083.6325,707.4406 5084.32,708.5188 Q5085.0075,709.5813 5086.3513,709.5813 Q5086.9763,709.5813 5087.57,709.3156 Q5088.1638,709.0344 5088.7888,708.4563 L5088.7888,711.175 Z " fill="#000000"/><text fill="#000000" font-family="sans-serif" font-size="14" lengthAdjust="spacing" textLength="88.3613" x="5101.82" y="710.3811">MapeoAtleta</text><line style="stroke:#181818;stroke-width:0.5;" x1="5071.82" x2="5194.1813" y1="721.5344" y2="721.5344"/><line style="stroke:#181818;stroke-width:0.5;" x1="5071.82" x2="5194.1813" y1="729.5344" y2="729.5344"/></g><!--class MapeoCompeti??o--><g class="entity" data-qualified-name="PS.Mapeamento ORM.MapeoCompeti..o" data-source-line="64" id="ent0046"><rect fill="#F1F1F1" height="48" rx="2.5" ry="2.5" style="stroke:#181818;stroke-width:0.5;" width="166.4229" x="5229.79" y="689.5344"/><ellipse cx="5244.79" cy="705.5344" fill="#ADD1B2" rx="11" ry="11" style="stroke:#181818;stroke-width:1;"/><path d="M5247.7588,711.175 Q5247.1806,711.4719 5246.54,711.6125 Q5245.8994,711.7688 5245.1963,711.7688 Q5242.6963,711.7688 5241.3681,710.1281 Q5240.0556,708.4719 5240.0556,705.3469 Q5240.0556,702.2219 5241.3681,700.5656 Q5242.6963,698.9094 5245.1963,698.9094 Q5245.8994,698.9094 5246.54,699.0656 Q5247.1963,699.2219 5247.7588,699.5188 L5247.7588,702.2375 Q5247.1338,701.6594 5246.54,701.3938 Q5245.9463,701.1125 5245.3213,701.1125 Q5243.9775,701.1125 5243.29,702.1906 Q5242.6025,703.2531 5242.6025,705.3469 Q5242.6025,707.4406 5243.29,708.5188 Q5243.9775,709.5813 5245.3213,709.5813 Q5245.9463,709.5813 5246.54,709.3156 Q5247.1338,709.0344 5247.7588,708.4563 L5247.7588,711.175 Z " fill="#000000"/><text fill="#000000" font-family="sans-serif" font-size="14" lengthAdjust="spacing" textLength="130.4229" x="5260.79" y="710.3811">MapeoCompeti&#231;&#227;o</text><line style="stroke:#181818;stroke-width:0.5;" x1="5230.79" x2="5395.2129" y1="721.5344" y2="721.5344"/><line style="stroke:#181818;stroke-width:0.5;" x1="5230.79" x2="5395.2129" y1="729.5344" y2="729.5344"/></g><!--class MapeoLocal--><g class="entity" data-qualified-name="PS.Mapeamento ORM.MapeoLocal" data-source-line="65" id="ent0047"><rect fill="#F1F1F1" height="48" rx="2.5" ry="2.5" style="stroke:#181818;stroke-width:0.5;" width="119.2549" x="5431.37" y="689.5344"/><ellipse cx="5446.37" cy="705.5344" fill="#ADD1B2" rx="11" ry="11" style="stroke:#181818;stroke-width:1;"/><path d="M5449.3388,711.175 Q5448.7606,711.4719 5448.12,711.6125 Q5447.4794,711.7688 5446.7763,711.7688 Q5444.2763,711.7688 5442.9481,710.1281 Q5441.6356,708.4719 5441.6356,705.3469 Q5441.6356,702.2219 5442.9481,700.5656 Q5444.2763,698.9094 5446.7763,698.9094 Q5447.4794,698.9094 5448.12,699.0656 Q5448.7763,699.2219 5449.3388,699.5188 L5449.3388,702.2375 Q5448.7138,701.6594 5448.12,701.3938 Q5447.5263,701.1125 5446.9013,701.1125 Q5445.5575,701.1125 5444.87,702.1906 Q5444.1825,703.2531 5444.1825,705.3469 Q5444.1825,707.4406 5444.87,708.5188 Q5445.5575,709.5813 5446.9013,709.5813 Q5447.5263,709.5813 5448.12,709.3156 Q5448.7138,709.0344 5449.3388,708.4563 L5449.3388,711.175 Z " fill="#000000"/><text fill="#000000" font-family="sans-serif" font-size="14" lengthAdjust="spacing" textLength="83.2549" x="5462.37" y="710.3811">MapeoLocal</text><line style="stroke:#181818;stroke-width:0.5;" x1="5432.37" x2="5549.6249" y1="721.5344" y2="721.5344"/><line style="stroke:#181818;stroke-width:0.5;" x1="5432.37" x2="5549.6249" y1="729.5344" y2="729.5344"/></g><!--class MapeoResultado--><g class="entity" data-qualified-name="PS.Mapeamento ORM.MapeoResultado" data-source-line="66" id="ent0048"><rect fill="#F1F1F1" height="48" rx="2.5" ry="2.5" style="stroke:#181818;stroke-width:0.5;" width="152.6416" x="5070.68" y="908.5344"/><ellipse cx="5085.68" cy="924.5344" fill="#ADD1B2" rx="11" ry="11" style="stroke:#181818;stroke-width:1;"/><path d="M5088.6488,930.175 Q5088.0706,930.4719 5087.43,930.6125 Q5086.7894,930.7688 5086.0863,930.7688 Q5083.5863,930.7688 5082.2581,929.1281 Q5080.9456,927.4719 5080.9456,924.3469 Q5080.9456,921.2219 5082.2581,919.5656 Q5083.5863,917.9094 5086.0863,917.9094 Q5086.7894,917.9094 5087.43,918.0656 Q5088.0863,918.2219 5088.6488,918.5188 L5088.6488,921.2375 Q5088.0238,920.6594 5087.43,920.3938 Q5086.8363,920.1125 5086.2113,920.1125 Q5084.8675,920.1125 5084.18,921.1906 Q5083.4925,922.2531 5083.4925,924.3469 Q5083.4925,926.4406 5084.18,927.5188 Q5084.8675,928.5813 5086.2113,928.5813 Q5086.8363,928.5813 5087.43,928.3156 Q5088.0238,928.0344 5088.6488,927.4563 L5088.6488,930.175 Z " fill="#000000"/><text fill="#000000" font-family="sans-serif" font-size="14" lengthAdjust="spacing" textLength="116.6416" x="5101.68" y="929.3811">MapeoResultado</text><line style="stroke:#181818;stroke-width:0.5;" x1="5071.68" x2="5222.3216" y1="940.5344" y2="940.5344"/><line style="stroke:#181818;stroke-width:0.5;" x1="5071.68" x2="5222.3216" y1="948.5344" y2="948.5344"/></g><!--class MapeoPa?s--><g class="entity" data-qualified-name="PS.Mapeamento ORM.MapeoPa.s" data-source-line="67" id="ent0049"><rect fill="#F1F1F1" height="48" rx="2.5" ry="2.5" style="stroke:#181818;stroke-width:0.5;" width="110.9287" x="5258.54" y="908.5344"/><ellipse cx="5273.54" cy="924.5344" fill="#ADD1B2" rx="11" ry="11" style="stroke:#181818;stroke-width:1;"/><path d="M5276.5088,930.175 Q5275.9306,930.4719 5275.29,930.6125 Q5274.6494,930.7688 5273.9463,930.7688 Q5271.4463,930.7688 5270.1181,929.1281 Q5268.8056,927.4719 5268.8056,924.3469 Q5268.8056,921.2219 5270.1181,919.5656 Q5271.4463,917.9094 5273.9463,917.9094 Q5274.6494,917.9094 5275.29,918.0656 Q5275.9463,918.2219 5276.5088,918.5188 L5276.5088,921.2375 Q5275.8838,920.6594 5275.29,920.3938 Q5274.6963,920.1125 5274.0713,920.1125 Q5272.7275,920.1125 5272.04,921.1906 Q5271.3525,922.2531 5271.3525,924.3469 Q5271.3525,926.4406 5272.04,927.5188 Q5272.7275,928.5813 5274.0713,928.5813 Q5274.6963,928.5813 5275.29,928.3156 Q5275.8838,928.0344 5276.5088,927.4563 L5276.5088,930.175 Z " fill="#000000"/><text fill="#000000" font-family="sans-serif" font-size="14" lengthAdjust="spacing" textLength="74.9287" x="5289.54" y="929.3811">MapeoPa&#237;s</text><line style="stroke:#181818;stroke-width:0.5;" x1="5259.54" x2="5368.4687" y1="940.5344" y2="940.5344"/><line style="stroke:#181818;stroke-width:0.5;" x1="5259.54" x2="5368.4687" y1="948.5344" y2="948.5344"/></g><!--class ConexaoDB--><g class="entity" data-qualified-name="BD.SQL.ConexaoDB" data-source-line="74" id="ent0052"><rect fill="#F1F1F1" height="48" rx="2.5" ry="2.5" style="stroke:#181818;stroke-width:0.5;" width="117.6416" x="5695.18" y="908.5344"/><ellipse cx="5710.18" cy="924.5344" fill="#ADD1B2" rx="11" ry="11" style="stroke:#181818;stroke-width:1;"/><path d="M5713.1488,930.175 Q5712.5706,930.4719 5711.93,930.6125 Q5711.2894,930.7688 5710.5863,930.7688 Q5708.0863,930.7688 5706.7581,929.1281 Q5705.4456,927.4719 5705.4456,924.3469 Q5705.4456,921.2219 5706.7581,919.5656 Q5708.0863,917.9094 5710.5863,917.9094 Q5711.2894,917.9094 5711.93,918.0656 Q5712.5863,918.2219 5713.1488,918.5188 L5713.1488,921.2375 Q5712.5238,920.6594 5711.93,920.3938 Q5711.3363,920.1125 5710.7113,920.1125 Q5709.3675,920.1125 5708.68,921.1906 Q5707.9925,922.2531 5707.9925,924.3469 Q5707.9925,926.4406 5708.68,927.5188 Q5709.3675,928.5813 5710.7113,928.5813 Q5711.3363,928.5813 5711.93,928.3156 Q5712.5238,928.0344 5713.1488,927.4563 L5713.1488,930.175 Z " fill="#000000"/><text fill="#000000" font-family="sans-serif" font-size="14" lengthAdjust="spacing" textLength="81.6416" x="5726.18" y="929.3811">ConexaoDB</text><line style="stroke:#181818;stroke-width:0.5;" x1="5696.18" x2="5811.8216" y1="940.5344" y2="940.5344"/><line style="stroke:#181818;stroke-width:0.5;" x1="5696.18" x2="5811.8216" y1="948.5344" y2="948.5344"/></g><!--class ScriptCria??o--><g class="entity" data-qualified-name="BD.SQL.ScriptCria..o" data-source-line="75" id="ent0053"><rect fill="#F1F1F1" height="48" rx="2.5" ry="2.5" style="stroke:#181818;stroke-width:0.5;" width="129.4473" x="5848.28" y="908.5344"/><ellipse cx="5863.28" cy="924.5344" fill="#ADD1B2" rx="11" ry="11" style="stroke:#181818;stroke-width:1;"/><path d="M5866.2488,930.175 Q5865.6706,930.4719 5865.03,930.6125 Q5864.3894,930.7688 5863.6863,930.7688 Q5861.1863,930.7688 5859.8581,929.1281 Q5858.5456,927.4719 5858.5456,924.3469 Q5858.5456,921.2219 5859.8581,919.5656 Q5861.1863,917.9094 5863.6863,917.9094 Q5864.3894,917.9094 5865.03,918.0656 Q5865.6863,918.2219 5866.2488,918.5188 L5866.2488,921.2375 Q5865.6238,920.6594 5865.03,920.3938 Q5864.4363,920.1125 5863.8113,920.1125 Q5862.4675,920.1125 5861.78,921.1906 Q5861.0925,922.2531 5861.0925,924.3469 Q5861.0925,926.4406 5861.78,927.5188 Q5862.4675,928.5813 5863.8113,928.5813 Q5864.4363,928.5813 5865.03,928.3156 Q5865.6238,928.0344 5866.2488,927.4563 L5866.2488,930.175 Z " fill="#000000"/><text fill="#000000" font-family="sans-serif" font-size="14" lengthAdjust="spacing" textLength="93.4473" x="5879.28" y="929.3811">ScriptCria&#231;&#227;o</text><line style="stroke:#181818;stroke-width:0.5;" x1="5849.28" x2="5976.7273" y1="940.5344" y2="940.5344"/><line style="stroke:#181818;stroke-width:0.5;" x1="5849.28" x2="5976.7273" y1="948.5344" y2="948.5344"/></g><!--class ConversorData--><g class="entity" data-qualified-name="UT.Convers.o.ConversorData" data-source-line="82" id="ent0056"><rect fill="#F1F1F1" height="48" rx="2.5" ry="2.5" style="stroke:#181818;stroke-width:0.5;" width="140.9111" x="6121.54" y="689.5344"/><ellipse cx="6136.54" cy="705.5344" fill="#ADD1B2" rx="11" ry="11" style="stroke:#181818;stroke-width:1;"/><path d="M6139.5088,711.175 Q6138.9306,711.4719 6138.29,711.6125 Q6137.6494,711.7688 6136.9463,711.7688 Q6134.4463,711.7688 6133.1181,710.1281 Q6131.8056,708.4719 6131.8056,705.3469 Q6131.8056,702.2219 6133.1181,700.5656 Q6134.4463,698.9094 6136.9463,698.9094 Q6137.6494,698.9094 6138.29,699.0656 Q6138.9463,699.2219 6139.5088,699.5188 L6139.5088,702.2375 Q6138.8838,701.6594 6138.29,701.3938 Q6137.6963,701.1125 6137.0713,701.1125 Q6135.7275,701.1125 6135.04,702.1906 Q6134.3525,703.2531 6134.3525,705.3469 Q6134.3525,707.4406 6135.04,708.5188 Q6135.7275,709.5813 6137.0713,709.5813 Q6137.6963,709.5813 6138.29,709.3156 Q6138.8838,709.0344 6139.5088,708.4563 L6139.5088,711.175 Z " fill="#000000"/><text fill="#000000" font-family="sans-serif" font-size="14" lengthAdjust="spacing" textLength="104.9111" x="6152.54" y="710.3811">ConversorData</text><line style="stroke:#181818;stroke-width:0.5;" x1="6122.54" x2="6261.4511" y1="721.5344" y2="721.5344"/><line style="stroke:#181818;stroke-width:0.5;" x1="6122.54" x2="6261.4511" y1="729.5344" y2="729.5344"/></g><!--class ConversorHora--><g class="entity" data-qualified-name="UT.Convers.o.ConversorHora" data-source-line="83" id="ent0057"><rect fill="#F1F1F1" height="48" rx="2.5" ry="2.5" style="stroke:#181818;stroke-width:0.5;" width="140.9111" x="6297.54" y="689.5344"/><ellipse cx="6312.54" cy="705.5344" fill="#ADD1B2" rx="11" ry="11" style="stroke:#181818;stroke-width:1;"/><path d="M6315.5088,711.175 Q6314.9306,711.4719 6314.29,711.6125 Q6313.6494,711.7688 6312.9463,711.7688 Q6310.4463,711.7688 6309.1181,710.1281 Q6307.8056,708.4719 6307.8056,705.3469 Q6307.8056,702.2219 6309.1181,700.5656 Q6310.4463,698.9094 6312.9463,698.9094 Q6313.6494,698.9094 6314.29,699.0656 Q6314.9463,699.2219 6315.5088,699.5188 L6315.5088,702.2375 Q6314.8838,701.6594 6314.29,701.3938 Q6313.6963,701.1125 6313.0713,701.1125 Q6311.7275,701.1125 6311.04,702.1906 Q6310.3525,703.2531 6310.3525,705.3469 Q6310.3525,707.4406 6311.04,708.5188 Q6311.7275,709.5813 6313.0713,709.5813 Q6313.6963,709.5813 6314.29,709.3156 Q6314.8838,709.0344 6315.5088,708.4563 L6315.5088,711.175 Z " fill="#000000"/><text fill="#000000" font-family="sans-serif" font-size="14" lengthAdjust="spacing" textLength="104.9111" x="6328.54" y="710.3811">ConversorHora</text><line style="stroke:#181818;stroke-width:0.5;" x1="6298.54" x2="6437.4511" y1="721.5344" y2="721.5344"/><line style="stroke:#181818;stroke-width:0.5;" x1="6298.54" x2="6437.4511" y1="729.5344" y2="729.5344"/></g><!--class FormatadorDados--><g class="entity" data-qualified-name="UT.Formata..o.FormatadorDados" data-source-line="86" id="ent0059"><rect fill="#F1F1F1" height="48" rx="2.5" ry="2.5" style="stroke:#181818;stroke-width:0.5;" width="161.9727" x="6494.01" y="689.5344"/><ellipse cx="6509.01" cy="705.5344" fill="#ADD1B2" rx="11" ry="11" style="stroke:#181818;stroke-width:1;"/><path d="M6511.9788,711.175 Q6511.4006,711.4719 6510.76,711.6125 Q6510.1194,711.7688 6509.4163,711.7688 Q6506.9163,711.7688 6505.5881,710.1281 Q6504.2756,708.4719 6504.2756,705.3469 Q6504.2756,702.2219 6505.5881,700.5656 Q6506.9163,698.9094 6509.4163,698.9094 Q6510.1194,698.9094 6510.76,699.0656 Q6511.4163,699.2219 6511.9788,699.5188 L6511.9788,702.2375 Q6511.3538,701.6594 6510.76,701.3938 Q6510.1663,701.1125 6509.5413,701.1125 Q6508.1975,701.1125 6507.51,702.1906 Q6506.8225,703.2531 6506.8225,705.3469 Q6506.8225,707.4406 6507.51,708.5188 Q6508.1975,709.5813 6509.5413,709.5813 Q6510.1663,709.5813 6510.76,709.3156 Q6511.3538,709.0344 6511.9788,708.4563 L6511.9788,711.175 Z " fill="#000000"/><text fill="#000000" font-family="sans-serif" font-size="14" lengthAdjust="spacing" textLength="125.9727" x="6525.01" y="710.3811">FormatadorDados</text><line style="stroke:#181818;stroke-width:0.5;" x1="6495.01" x2="6654.9827" y1="721.5344" y2="721.5344"/><line style="stroke:#181818;stroke-width:0.5;" x1="6495.01" x2="6654.9827" y1="729.5344" y2="729.5344"/></g><!--class FormatadorRelatorio--><g class="entity" data-qualified-name="UT.Formata..o.FormatadorRelatorio" data-source-line="87" id="ent0060"><rect fill="#F1F1F1" height="48" rx="2.5" ry="2.5" style="stroke:#181818;stroke-width:0.5;" width="180.9424" x="6690.53" y="689.5344"/><ellipse cx="6705.53" cy="705.5344" fill="#ADD1B2" rx="11" ry="11" style="stroke:#181818;stroke-width:1;"/><path d="M6708.4988,711.175 Q6707.9206,711.4719 6707.28,711.6125 Q6706.6394,711.7688 6705.9363,711.7688 Q6703.4363,711.7688 6702.1081,710.1281 Q6700.7956,708.4719 6700.7956,705.3469 Q6700.7956,702.2219 6702.1081,700.5656 Q6703.4363,698.9094 6705.9363,698.9094 Q6706.6394,698.9094 6707.28,699.0656 Q6707.9363,699.2219 6708.4988,699.5188 L6708.4988,702.2375 Q6707.8738,701.6594 6707.28,701.3938 Q6706.6863,701.1125 6706.0613,701.1125 Q6704.7175,701.1125 6704.03,702.1906 Q6703.3425,703.2531 6703.3425,705.3469 Q6703.3425,707.4406 6704.03,708.5188 Q6704.7175,709.5813 6706.0613,709.5813 Q6706.6863,709.5813 6707.28,709.3156 Q6707.8738,709.0344 6708.4988,708.4563 L6708.4988,711.175 Z " fill="#000000"/><text fill="#000000" font-family="sans-serif" font-size="14" lengthAdjust="spacing" textLength="144.9424" x="6721.53" y="710.3811">FormatadorRelatorio</text><line style="stroke:#181818;stroke-width:0.5;" x1="6691.53" x2="6870.4724" y1="721.5344" y2="721.5344"/><line style="stroke:#181818;stroke-width:0.5;" x1="6691.53" x2="6870.4724" y1="729.5344" y2="729.5344"/></g><!--class Exc??oInscri??o--><g class="entity" data-qualified-name="UT.Exce..es.Exc..oInscri..o" data-source-line="90" id="ent0062"><rect fill="#F1F1F1" height="48" rx="2.5" ry="2.5" style="stroke:#181818;stroke-width:0.5;" width="148.1504" x="6929.92" y="689.5344"/><ellipse cx="6944.92" cy="705.5344" fill="#ADD1B2" rx="11" ry="11" style="stroke:#181818;stroke-width:1;"/><path d="M6947.8888,711.175 Q6947.3106,711.4719 6946.67,711.6125 Q6946.0294,711.7688 6945.3263,711.7688 Q6942.8263,711.7688 6941.4981,710.1281 Q6940.1856,708.4719 6940.1856,705.3469 Q6940.1856,702.2219 6941.4981,700.5656 Q6942.8263,698.9094 6945.3263,698.9094 Q6946.0294,698.9094 6946.67,699.0656 Q6947.3263,699.2219 6947.8888,699.5188 L6947.8888,702.2375 Q6947.2638,701.6594 6946.67,701.3938 Q6946.0763,701.1125 6945.4513,701.1125 Q6944.1075,701.1125 6943.42,702.1906 Q6942.7325,703.2531 6942.7325,705.3469 Q6942.7325,707.4406 6943.42,708.5188 Q6944.1075,709.5813 6945.4513,709.5813 Q6946.0763,709.5813 6946.67,709.3156 Q6947.2638,709.0344 6947.8888,708.4563 L6947.8888,711.175 Z " fill="#000000"/><text fill="#000000" font-family="sans-serif" font-size="14" lengthAdjust="spacing" textLength="112.1504" x="6960.92" y="710.3811">Exc&#231;&#227;oInscri&#231;&#227;o</text><line style="stroke:#181818;stroke-width:0.5;" x1="6930.92" x2="7077.0704" y1="721.5344" y2="721.5344"/><line style="stroke:#181818;stroke-width:0.5;" x1="6930.92" x2="7077.0704" y1="729.5344" y2="729.5344"/></g><!--class Exc??oConflito--><g class="entity" data-qualified-name="UT.Exce..es.Exc..oConflito" data-source-line="91" id="ent0063"><rect fill="#F1F1F1" height="48" rx="2.5" ry="2.5" style="stroke:#181818;stroke-width:0.5;" width="139.6465" x="7113.18" y="689.5344"/><ellipse cx="7128.18" cy="705.5344" fill="#ADD1B2" rx="11" ry="11" style="stroke:#181818;stroke-width:1;"/><path d="M7131.1488,711.175 Q7130.5706,711.4719 7129.93,711.6125 Q7129.2894,711.7688 7128.5863,711.7688 Q7126.0863,711.7688 7124.7581,710.1281 Q7123.4456,708.4719 7123.4456,705.3469 Q7123.4456,702.2219 7124.7581,700.5656 Q7126.0863,698.9094 7128.5863,698.9094 Q7129.2894,698.9094 7129.93,699.0656 Q7130.5863,699.2219 7131.1488,699.5188 L7131.1488,702.2375 Q7130.5238,701.6594 7129.93,701.3938 Q7129.3363,701.1125 7128.7113,701.1125 Q7127.3675,701.1125 7126.68,702.1906 Q7125.9925,703.2531 7125.9925,705.3469 Q7125.9925,707.4406 7126.68,708.5188 Q7127.3675,709.5813 7128.7113,709.5813 Q7129.3363,709.5813 7129.93,709.3156 Q7130.5238,709.0344 7131.1488,708.4563 L7131.1488,711.175 Z " fill="#000000"/><text fill="#000000" font-family="sans-serif" font-size="14" lengthAdjust="spacing" textLength="103.6465" x="7144.18" y="710.3811">Exc&#231;&#227;oConflito</text><line style="stroke:#181818;stroke-width:0.5;" x1="7114.18" x2="7251.8265" y1="721.5344" y2="721.5344"/><line style="stroke:#181818;stroke-width:0.5;" x1="7114.18" x2="7251.8265" y1="729.5344" y2="729.5344"/></g><!--class Exc??oValida??o--><g class="entity" data-qualified-name="UT.Exce..es.Exc..oValida..o" data-source-line="92" id="ent0064"><rect fill="#F1F1F1" height="48" rx="2.5" ry="2.5" style="stroke:#181818;stroke-width:0.5;" width="153.9131" x="6927.04" y="908.5344"/><ellipse cx="6942.04" cy="924.5344" fill="#ADD1B2" rx="11" ry="11" style="stroke:#181818;stroke-width:1;"/><path d="M6945.0088,930.175 Q6944.4306,930.4719 6943.79,930.6125 Q6943.1494,930.7688 6942.4463,930.7688 Q6939.9463,930.7688 6938.6181,929.1281 Q6937.3056,927.4719 6937.3056,924.3469 Q6937.3056,921.2219 6938.6181,919.5656 Q6939.9463,917.9094 6942.4463,917.9094 Q6943.1494,917.9094 6943.79,918.0656 Q6944.4463,918.2219 6945.0088,918.5188 L6945.0088,921.2375 Q6944.3838,920.6594 6943.79,920.3938 Q6943.1963,920.1125 6942.5713,920.1125 Q6941.2275,920.1125 6940.54,921.1906 Q6939.8525,922.2531 6939.8525,924.3469 Q6939.8525,926.4406 6940.54,927.5188 Q6941.2275,928.5813 6942.5713,928.5813 Q6943.1963,928.5813 6943.79,928.3156 Q6944.3838,928.0344 6945.0088,927.4563 L6945.0088,930.175 Z " fill="#000000"/><text fill="#000000" font-family="sans-serif" font-size="14" lengthAdjust="spacing" textLength="117.9131" x="6958.04" y="929.3811">Exc&#231;&#227;oValida&#231;&#227;o</text><line style="stroke:#181818;stroke-width:0.5;" x1="6928.04" x2="7079.9531" y1="940.5344" y2="940.5344"/><line style="stroke:#181818;stroke-width:0.5;" x1="6928.04" x2="7079.9531" y1="948.5344" y2="948.5344"/></g><!--class Exc??oNaoEncontrado--><g class="entity" data-qualified-name="UT.Exce..es.Exc..oNaoEncontrado" data-source-line="93" id="ent0065"><rect fill="#F1F1F1" height="48" rx="2.5" ry="2.5" style="stroke:#181818;stroke-width:0.5;" width="193.418" x="7116.29" y="908.5344"/><ellipse cx="7131.29" cy="924.5344" fill="#ADD1B2" rx="11" ry="11" style="stroke:#181818;stroke-width:1;"/><path d="M7134.2588,930.175 Q7133.6806,930.4719 7133.04,930.6125 Q7132.3994,930.7688 7131.6963,930.7688 Q7129.1963,930.7688 7127.8681,929.1281 Q7126.5556,927.4719 7126.5556,924.3469 Q7126.5556,921.2219 7127.8681,919.5656 Q7129.1963,917.9094 7131.6963,917.9094 Q7132.3994,917.9094 7133.04,918.0656 Q7133.6963,918.2219 7134.2588,918.5188 L7134.2588,921.2375 Q7133.6338,920.6594 7133.04,920.3938 Q7132.4463,920.1125 7131.8213,920.1125 Q7130.4775,920.1125 7129.79,921.1906 Q7129.1025,922.2531 7129.1025,924.3469 Q7129.1025,926.4406 7129.79,927.5188 Q7130.4775,928.5813 7131.8213,928.5813 Q7132.4463,928.5813 7133.04,928.3156 Q7133.6338,928.0344 7134.2588,927.4563 L7134.2588,930.175 Z " fill="#000000"/><text fill="#000000" font-family="sans-serif" font-size="14" lengthAdjust="spacing" textLength="157.418" x="7147.29" y="929.3811">Exc&#231;&#227;oNaoEncontrado</text><line style="stroke:#181818;stroke-width:0.5;" x1="7117.29" x2="7308.708" y1="940.5344" y2="940.5344"/><line style="stroke:#181818;stroke-width:0.5;" x1="7117.29" x2="7308.708" y1="948.5344" y2="948.5344"/></g><!--link AP to NG--><g class="link" data-entity-1="ent0002" data-entity-2="ent0015" data-link-type="dependency" data-source-line="98" id="lnk66"><path codeLine="98" d="M1472.4319,236.5312 C1477.3662,236.5304 1484.415,236.5306 1493.44,236.5346 C1511.4899,236.5426 1537.4448,236.5657 1570.1996,236.6258 C1635.7093,236.7461 1728.4185,237.014 1839.487,237.6036 C2061.6241,238.7828 2357.1981,241.2487 2655.4863,246.3931 C3252.0625,256.6819 3859.495,277.6844 3912,320.5344 C3914.8981,322.8994 3917.5608,325.4768 3920.006,328.2316 C3921.2286,329.6089 3922.3968,331.0306 3923.5129,332.4923 C3924.071,333.2231 3924.616,333.9639 3925.1483,334.7142 C3925.4144,335.0893 3925.6774,335.4668 3925.9372,335.8466 C3926.0671,336.0365 3922.8503,331.2464 3922.9787,331.4375" fill="none" id="AP-to-NG" style="stroke:#181818;stroke-width:1;stroke-dasharray:7,7;"/><polygon fill="#181818" points="3926.3245,336.418,3924.6261,326.7166,3923.5363,332.2675,3917.9854,331.1778,3926.3245,336.418" style="stroke:#181818;stroke-width:1;"/><text fill="#000000" font-family="sans-serif" font-size="13" lengthAdjust="spacing" textLength="22.9785" x="3891" y="306.6013">usa</text></g><!--link NG to PS--><g class="link" data-entity-1="ent0015" data-entity-2="ent0037" data-link-type="dependency" data-source-line="99" id="lnk67"><path codeLine="99" d="M3953.4337,455.5882 C3953.9495,455.5915 3954.4858,455.595 3955.0424,455.5987 C3957.2689,455.6134 3959.8204,455.631 3962.6863,455.6519 C3974.1499,455.7354 3990.6439,455.8717 4011.4846,456.0858 C4053.1661,456.514 4112.2347,457.2533 4183.2219,458.5041 C4325.1963,461.0056 4514.845,465.5531 4708.42,473.7494 C5095.57,490.1419 5498.425,521.1294 5567,579.5344 C5569.8475,581.9594 5572.4657,584.5894 5574.8722,587.3901 C5576.0754,588.7904 5577.2256,590.2334 5578.3251,591.7148 C5578.8748,592.4554 5579.4119,593.2057 5579.9365,593.965 C5580.1988,594.3447 5577.1293,589.7346 5577.3854,590.1187" fill="none" id="NG-to-PS" style="stroke:#181818;stroke-width:1;stroke-dasharray:7,7;"/><polygon fill="#181818" points="5580.7141,595.1107,5579.0491,585.4036,5577.9402,590.9507,5572.3931,589.8419,5580.7141,595.1107" style="stroke:#181818;stroke-width:1;"/><text fill="#000000" font-family="sans-serif" font-size="13" lengthAdjust="spacing" textLength="44.624" x="5547" y="565.6013">acessa</text></g><!--link PS to BD--><g class="link" data-entity-1="ent0037" data-entity-2="ent0050" data-link-type="dependency" data-source-line="100" id="lnk68"><path codeLine="100" d="M5607.1134,715.104 C5607.5505,715.1363 5608.0042,715.1699 5608.4741,715.205 C5610.3536,715.3451 5612.4932,715.5078 5614.8751,715.6935 C5624.4025,716.4363 5637.8059,717.5483 5653.9463,719.0672 C5686.2269,722.105 5729.455,726.7706 5774.5175,733.3669 C5864.6425,746.5594 5962.105,767.4744 5994,798.5344 C5996.68,801.1438 5999.1514,803.9355 6001.4296,806.8772 C6002.5688,808.3481 6003.6596,809.8565 6004.7041,811.3983 C6005.2264,812.1692 6005.7371,812.9485 6006.2364,813.7357 C6006.3612,813.9325 6003.3087,809.0397 6003.4322,809.2374" fill="none" id="PS-to-BD" style="stroke:#181818;stroke-width:1;stroke-dasharray:7,7;"/><polygon fill="#181818" points="6006.6088,814.3275,6005.2373,804.5746,6003.9616,810.0858,5998.4505,808.8101,6006.6088,814.3275" style="stroke:#181818;stroke-width:1;"/><text fill="#000000" font-family="sans-serif" font-size="13" lengthAdjust="spacing" textLength="51.8477" x="5982" y="784.6013">persiste</text></g><!--link NG to UT--><g class="link" data-entity-1="ent0015" data-entity-2="ent0054" data-link-type="dependency" data-source-line="101" id="lnk69"><path codeLine="101" d="M3952.2287,455.9745 C3953.217,456.0277 3954.2928,456.0855 3955.4552,456.1479 C3957.7799,456.2728 3960.4509,456.416 3963.4614,456.5772 C3975.5035,457.2218 3992.9769,458.1528 4015.4413,459.3383 C4060.3701,461.7095 4125.2627,465.0989 4206.5955,469.2522 C4369.2609,477.5588 4597.6869,488.9206 4863.6838,501.3019 C5395.6775,526.0644 6077.955,554.9044 6685,571.5344 C6693.9,571.7744 7319.04,573.9844 7326,579.5344 C7328.9238,581.8675 7331.6089,584.417 7334.0736,587.1473 C7335.306,588.5125 7336.4833,589.9228 7337.6079,591.374 C7338.1701,592.0996 7338.7192,592.8354 7339.2553,593.5808 C7339.5234,593.9535 7339.7882,594.3286 7340.0499,594.7061 C7340.1807,594.8948 7336.935,590.1239 7337.0642,590.3138" fill="none" id="NG-to-UT" style="stroke:#181818;stroke-width:1;stroke-dasharray:7,7;"/><polygon fill="#181818" points="7340.44,595.2741,7338.6832,585.5831,7337.6268,591.1405,7332.0695,590.0841,7340.44,595.2741" style="stroke:#181818;stroke-width:1;"/><text fill="#000000" font-family="sans-serif" font-size="13" lengthAdjust="spacing" textLength="38.9619" x="6688" y="565.6013">utiliza</text></g><!--link AP to UT--><g class="link" data-entity-1="ent0002" data-entity-2="ent0054" data-link-type="dependency" data-source-line="102" id="lnk70"><path codeLine="102" d="M1472.7828,236.5185 C1473.266,236.5178 1473.7688,236.5171 1474.2911,236.5164 C1476.3801,236.5136 1478.7804,236.5108 1481.4857,236.5083 C1492.3069,236.4979 1508.0084,236.4913 1528.1937,236.504 C1568.5642,236.5294 1626.8697,236.6322 1699.9369,236.9381 C1846.0712,237.55 2051.2525,238.9744 2290.095,242.2169 C2767.78,248.7019 3380.11,262.4594 3924,291.5344 C4681.62,332.0344 6750.41,85.2344 7326,579.5344 C7328.8375,581.9712 7331.447,584.6117 7333.8458,587.4214 C7335.0452,588.8263 7336.1919,590.2734 7337.2881,591.7586 C7337.8362,592.5013 7338.3717,593.2534 7338.8948,594.0145 C7339.1564,594.395 7336.0977,589.7782 7336.3531,590.1631" fill="none" id="AP-to-UT" style="stroke:#181818;stroke-width:1;stroke-dasharray:7,7;"/><polygon fill="#181818" points="7339.6703,595.1628,7338.0276,585.4519,7336.906,590.9964,7331.3615,589.8748,7339.6703,595.1628" style="stroke:#181818;stroke-width:1;"/><text fill="#000000" font-family="sans-serif" font-size="13" lengthAdjust="spacing" textLength="38.9619" x="7266" y="459.1013">utiliza</text></g><!--link CtrlCompeti??o to Servi?oCompeti??o--><g class="link" data-entity-1="ent0010" data-entity-2="ent0026" data-link-type="dependency" data-source-line="105" id="lnk71"><path codeLine="105" d="M723.23,259.8444 C738.96,268.6544 757.82,277.8944 776,283.5344 C879.05,315.4644 909.34,305.6144 1017,312.5344 C1042.86,314.1944 1926.24,310.1944 1950,320.5344 C2001.77,343.0644 2039.1209,393.2184 2059.1309,424.9684" fill="none" id="CtrlCompeti&#231;&#227;o-to-Servi&#231;oCompeti&#231;&#227;o" style="stroke:#181818;stroke-width:1;stroke-dasharray:7,7;"/><polygon fill="#181818" points="2062.33,430.0444,2060.9154,420.2976,2059.6641,425.8144,2054.1474,424.5631,2062.33,430.0444" style="stroke:#181818;stroke-width:1;"/></g><!--link CtrlInscri??o to Servi?oInscri??o--><g class="link" data-entity-1="ent0011" data-entity-2="ent0027" data-link-type="dependency" data-source-line="106" id="lnk72"><path codeLine="106" d="M886.87,259.9044 C900.68,268.8344 917.46,278.1544 934,283.5344 C1066.85,326.7544 1107.47,305.4844 1247,312.5344 C1259.93,313.1844 2167.55,314.5044 2179,320.5344 C2223.25,343.8344 2248.5967,393.2036 2261.3567,424.6936" fill="none" id="CtrlInscri&#231;&#227;o-to-Servi&#231;oInscri&#231;&#227;o" style="stroke:#181818;stroke-width:1;stroke-dasharray:7,7;"/><polygon fill="#181818" points="2263.61,430.2544,2263.9373,420.411,2261.7323,425.6204,2256.5229,423.4153,2263.61,430.2544" style="stroke:#181818;stroke-width:1;"/></g><!--link CtrlAloca??o to Servi?oAloca??o--><g class="link" data-entity-1="ent0012" data-entity-2="ent0028" data-link-type="dependency" data-source-line="107" id="lnk73"><path codeLine="107" d="M1045.41,259.8944 C1059.29,268.9344 1076.23,278.3444 1093,283.5344 C1141.29,298.4844 1496.49,310.6744 1547,312.5344 C1569.71,313.3744 2344.9,309.9344 2365,320.5344 C2409.24,343.8544 2434.5852,393.2142 2447.3552,424.7042" fill="none" id="CtrlAloca&#231;&#227;o-to-Servi&#231;oAloca&#231;&#227;o" style="stroke:#181818;stroke-width:1;stroke-dasharray:7,7;"/><polygon fill="#181818" points="2449.61,430.2644,2449.9346,420.4209,2447.731,425.6309,2442.521,423.4273,2449.61,430.2644" style="stroke:#181818;stroke-width:1;"/></g><!--link CtrlResultados to Servi?oResultados--><g class="link" data-entity-1="ent0013" data-entity-2="ent0029" data-link-type="dependency" data-source-line="108" id="lnk74"><path codeLine="108" d="M1214.43,259.8344 C1229.83,268.9844 1248.62,278.4844 1267,283.5344 C1286.14,288.7944 1961.16,311.9944 1981,312.5344 C1996.83,312.9644 2536.88,313.3644 2551,320.5344 C2596.72,343.7644 2624.6254,393.253 2638.9654,424.773" fill="none" id="CtrlResultados-to-Servi&#231;oResultados" style="stroke:#181818;stroke-width:1;stroke-dasharray:7,7;"/><polygon fill="#181818" points="2641.45,430.2344,2641.3639,420.3859,2639.3795,425.6832,2634.0821,423.6988,2641.45,430.2344" style="stroke:#181818;stroke-width:1;"/></g><!--link CtrlRelat?rios to Servi?oRelat?rios--><g class="link" data-entity-1="ent0014" data-entity-2="ent0030" data-link-type="dependency" data-source-line="109" id="lnk75"><path codeLine="109" d="M1377.03,259.9344 C1389.3,269.1044 1404.52,278.6044 1420,283.5344 C1452.72,293.9644 1694.67,290.6044 1729,291.5344 C1757.39,292.3044 2725.9,307.2444 2751,320.5344 C2795.54,344.1244 2822.0025,393.1655 2835.5625,424.5855" fill="none" id="CtrlRelat&#243;rios-to-Servi&#231;oRelat&#243;rios" style="stroke:#181818;stroke-width:1;stroke-dasharray:7,7;"/><polygon fill="#181818" points="2837.94,430.0944,2838.0464,420.2461,2835.9588,425.5037,2830.7012,423.4161,2837.94,430.0944" style="stroke:#181818;stroke-width:1;"/></g><!--link Servi?oCompeti??o to Reposit?rioCompeti??o--><g class="link" data-entity-1="ent0026" data-entity-2="ent0040" data-link-type="dependency" data-source-line="111" id="lnk76"><path codeLine="111" d="M2096.37,478.9244 C2115.53,499.2644 2146.13,527.7444 2179,542.5344 C2260.91,579.3744 2289.74,561.4944 2379,571.5344 C3009.17,642.3944 3764.2006,690.4486 4033.0706,706.4186" fill="none" id="Servi&#231;oCompeti&#231;&#227;o-to-Reposit&#243;rioCompeti&#231;&#227;o" style="stroke:#181818;stroke-width:1;stroke-dasharray:7,7;"/><polygon fill="#181818" points="4039.06,706.7744,4030.313,702.2478,4034.0688,706.4779,4029.8387,710.2337,4039.06,706.7744" style="stroke:#181818;stroke-width:1;"/></g><!--link Servi?oInscri??o to Reposit?rioAtleta--><g class="link" data-entity-1="ent0027" data-entity-2="ent0039" data-link-type="dependency" data-source-line="112" id="lnk77"><path codeLine="112" d="M2289.01,478.6844 C2305.76,499.4644 2333.38,528.7644 2365,542.5344 C2375.65,547.1744 2770.4,571.1044 2782,571.5344 C2802.46,572.3044 4237.8,570.1644 4256,579.5344 C4300.94,602.6744 4327.3615,652.1431 4340.7815,683.6931" fill="none" id="Servi&#231;oInscri&#231;&#227;o-to-Reposit&#243;rioAtleta" style="stroke:#181818;stroke-width:1;stroke-dasharray:7,7;"/><polygon fill="#181818" points="4343.13,689.2144,4343.2881,679.3668,4341.1729,684.6133,4335.9264,682.4981,4343.13,689.2144" style="stroke:#181818;stroke-width:1;"/></g><!--link Servi?oInscri??o to Reposit?rioCompeti??o--><g class="link" data-entity-1="ent0027" data-entity-2="ent0040" data-link-type="dependency" data-source-line="113" id="lnk78"><path codeLine="113" d="M2289.42,478.8944 C2306.26,499.5244 2333.76,528.4444 2365,542.5344 C2667.82,679.1544 3704.9507,706.1001 4033.2507,711.2601" fill="none" id="Servi&#231;oInscri&#231;&#227;o-to-Reposit&#243;rioCompeti&#231;&#227;o" style="stroke:#181818;stroke-width:1;stroke-dasharray:7,7;"/><polygon fill="#181818" points="4039.25,711.3544,4030.314,707.2134,4034.2506,711.2758,4030.1882,715.2124,4039.25,711.3544" style="stroke:#181818;stroke-width:1;"/></g><!--link Servi?oAloca??o to Reposit?rioLocal--><g class="link" data-entity-1="ent0028" data-entity-2="ent0041" data-link-type="dependency" data-source-line="114" id="lnk79"><path codeLine="114" d="M2474.94,478.8544 C2491.64,499.7544 2519.22,529.1244 2551,542.5344 C2566.94,549.2544 3155.71,571.0744 3173,571.5344 C3190.7,572.0044 4432.32,571.3044 4448,579.5344 C4492.28,602.7844 4517.6195,652.1724 4530.3695,683.6824" fill="none" id="Servi&#231;oAloca&#231;&#227;o-to-Reposit&#243;rioLocal" style="stroke:#181818;stroke-width:1;stroke-dasharray:7,7;"/><polygon fill="#181818" points="4532.62,689.2444,4532.9521,679.4011,4530.7445,684.6094,4525.5362,682.4018,4532.62,689.2444" style="stroke:#181818;stroke-width:1;"/></g><!--link Servi?oResultados to Reposit?rioResultado--><g class="link" data-entity-1="ent0029" data-entity-2="ent0042" data-link-type="dependency" data-source-line="115" id="lnk80"><path codeLine="115" d="M2669.31,479.0044 C2687.29,500.0144 2716.78,529.4644 2750,542.5344 C2763.1,547.6844 3748.93,571.2644 3763,571.5344 C3775.1,571.7644 4623.08,574.3344 4634,579.5344 C4682.02,602.4044 4713.5517,652.1764 4730.0817,683.8164" fill="none" id="Servi&#231;oResultados-to-Reposit&#243;rioResultado" style="stroke:#181818;stroke-width:1;stroke-dasharray:7,7;"/><polygon fill="#181818" points="4732.86,689.1344,4732.2378,679.3052,4730.5447,684.7027,4725.1472,683.0096,4732.86,689.1344" style="stroke:#181818;stroke-width:1;"/></g><!--link Servi?oRelat?rios to Reposit?rioPa?s--><g class="link" data-entity-1="ent0030" data-entity-2="ent0043" data-link-type="dependency" data-source-line="116" id="lnk81"><path codeLine="116" d="M2864.47,478.6744 C2881.95,499.7644 2910.95,529.5444 2944,542.5344 C2967.22,551.6644 3368.06,550.0644 3393,550.5344 C3474.17,552.0644 4782.77,540.5844 4854,579.5344 C4897.15,603.1344 4921.0355,652.0669 4932.9955,683.4869" fill="none" id="Servi&#231;oRelat&#243;rios-to-Reposit&#243;rioPa&#237;s" style="stroke:#181818;stroke-width:1;stroke-dasharray:7,7;"/><polygon fill="#181818" points="4935.13,689.0944,4935.6666,679.2601,4933.3513,684.4215,4928.1899,682.1061,4935.13,689.0944" style="stroke:#181818;stroke-width:1;"/></g><!--link Servi?oValida??o to ValidadorInscri??o--><g class="link" data-entity-1="ent0031" data-entity-2="ent0033" data-link-type="dependency" data-source-line="118" id="lnk82"><path codeLine="118" d="M3117.41,454.5344 C3136,454.5344 3148.58,454.5344 3167.17,454.5344" fill="none" id="Servi&#231;oValida&#231;&#227;o-to-ValidadorInscri&#231;&#227;o" style="stroke:#181818;stroke-width:1;stroke-dasharray:7,7;"/><polygon fill="#181818" points="3173.17,454.5344,3164.17,450.5344,3168.17,454.5344,3164.17,458.5344,3173.17,454.5344" style="stroke:#181818;stroke-width:1;"/></g><!--link Servi?oValida??o to ValidadorConflito--><g class="link" data-entity-1="ent0031" data-entity-2="ent0034" data-link-type="dependency" data-source-line="119" id="lnk83"><path codeLine="119" d="M3051.58,430.0644 C3071.79,393.8544 3115.3,327.5244 3174.5,302.0344 C3207.97,287.6244 3305.03,287.6244 3338.5,302.0344 C3393.97,325.9244 3425.8712,388.0299 3440.8412,424.6799" fill="none" id="Servi&#231;oValida&#231;&#227;o-to-ValidadorConflito" style="stroke:#181818;stroke-width:1;stroke-dasharray:7,7;"/><polygon fill="#181818" points="3443.11,430.2344,3443.4098,420.3901,3441.2193,425.6056,3436.0038,423.4151,3443.11,430.2344" style="stroke:#181818;stroke-width:1;"/></g><!--link Servi?oValida??o to ValidadorAloca??o--><g class="link" data-entity-1="ent0031" data-entity-2="ent0035" data-link-type="dependency" data-source-line="120" id="lnk84"><path codeLine="120" d="M3051.58,430.0644 C3071.79,393.8544 3115.3,327.5244 3174.5,302.0344 C3210.83,286.3944 3494.17,286.3944 3530.5,302.0344 C3586.68,326.2244 3620.1853,388.253 3636.0953,424.803" fill="none" id="Servi&#231;oValida&#231;&#227;o-to-ValidadorAloca&#231;&#227;o" style="stroke:#181818;stroke-width:1;stroke-dasharray:7,7;"/><polygon fill="#181818" points="3638.49,430.3044,3638.5655,420.4558,3636.4944,425.7199,3631.2303,423.6488,3638.49,430.3044" style="stroke:#181818;stroke-width:1;"/></g><!--link Servi?oValida??o to ValidadorPa?s--><g class="link" data-entity-1="ent0031" data-entity-2="ent0036" data-link-type="dependency" data-source-line="121" id="lnk85"><path codeLine="121" d="M3051.58,430.0644 C3071.79,393.8544 3115.3,327.5244 3174.5,302.0344 C3231.24,277.6044 3673.76,277.6044 3730.5,302.0344 C3783.94,325.0444 3810.5774,387.7111 3822.4074,424.5911" fill="none" id="Servi&#231;oValida&#231;&#227;o-to-ValidadorPa&#237;s" style="stroke:#181818;stroke-width:1;stroke-dasharray:7,7;"/><polygon fill="#181818" points="3824.24,430.3044,3825.2999,420.5127,3822.7128,425.5433,3817.6822,422.9562,3824.24,430.3044" style="stroke:#181818;stroke-width:1;"/></g><?plantuml-src ZLR1RjGm4BtdAwnUW0iI1Gv40YcRX1AfcrsINKvSHecxHCt6KUnMfQW7n069Ar-0E20XzLJn1VanniaccpZsjZabVY_s6x_nZ4KcSahYZ0kw1P9ISaAvg7ypaW8dYppRblKjoFV7ySdYoSV2os1JGKjTGi84vPR5pxEY11mc9IJdiA6n-8opLZGHK6noEYAaQLPioF5Wx8mL8iwkANbbMO_8w_uXhZDtF8SyiucpZFpO3rTE_Rt-jXXmhDsAvCWfAyff8Q3-W_gF26fsbkIBHV3fIK4XQ7K62PNwr_oY_bLbo6rPyabou9m4Avg3oxOb5LapdGuF2fvKPZYY_28Na3AkHtCGzHskheMTd2Mmd_fc78MB6rQn7EV6aAVgNL7b1yHBsAnTeihgOz0OLmkEmxgnRlIU7jiaz4_gdswWTpEac_ekoLeVmnFLHxyGMGgfBde74rg0gisy7NqyolWIwbirn5FSbrmPczCKya_gWkODFcnjJAjB_8rf0kkW0x5q5FFg7SDeSKSmshmdc3AuOto074qoXjh3_tGsjYXck3cMdeBduIpFX14t1jipzcORC_QvJPP-50VngluHke6ZJTibhJZMqlflaMJGvEuoLdCteYNZsMxhfe4FOMqk3ma7ytfFq-Nj43UTWI5dk4MZUEPGKjXYvMLa4Ssd0KbS7qc370YXmRLdJW8cqGtu04DVs6JcXEw2U3xn76yHQnsTGP4msIqyUHOQIsUUQcdy_bHJXbb1hu1vC_LuO3gNmgsoqT4mY7nfa_KgE0rMzTSeC4XSYmoplsbbhS3rIXM8MYunDPl6gD4fCLPveAcRE-mTgq1d_bjMRQ7lkUhKEpILSqyhoHvjQWb3_Reb_Ak4cge4OitIvYBHCGmreeFLMZLbXC1yJ0Nil5tAJKtp_AKVUcrzY0dULo9_P-J8ERoNF7twHhOrcrnmiF15VcEfi0dUJJWEuRiSmbIpITaM5Thnq5xyJvf-3TrSex53ee9mvKVXM8zwOI0ueRRRA5U78M_emFWECMGDAl7uBZ4a3LgFSgSOi_RznzAfbMHZhTJ8LlcxalK0fdRcyGPCg_4qMfMtBt2Qc5LoM_0iJU-LJ6qtlO_R7vdxY0DNxwCsCly3?></g></svg>